<svg id="Calque_18" data-name="Calque 18" xmlns="http://www.w3.org/2000/svg" viewBox="0 0 641.65 218.59"><defs><style>.cls-1{fill:#b8dbdb;}.cls-2,.cls-4,.cls-5{fill:#fff;}.cls-3{fill:#9cc;}.cls-4,.cls-5{stroke:#9cc;stroke-miterlimit:10;}.cls-4{stroke-width:0.21px;}.cls-5{stroke-width:0.22px;}</style></defs><title>Baniere fruits bleu clair</title><g id="Calque_19" data-name="Calque 19"><path class="cls-1" d="M578.77,102.34a1.62,1.62,0,0,0,.07.29c0,.18.13.46.25.81a15.81,15.81,0,0,0,1.43,3,12.11,12.11,0,0,0,1.46,1.9,6.45,6.45,0,0,0,2.39,1.61,2.76,2.76,0,0,0,1.66,0,3.37,3.37,0,0,0,1.43-1,7.43,7.43,0,0,0,1.5-3.39,7.83,7.83,0,0,0-.25-4.08,5.12,5.12,0,0,0-1.2-1.87,13.32,13.32,0,0,0-1.79-1.38,11.57,11.57,0,0,1-3.31-3.09,13.72,13.72,0,0,1-2-4.37,14.07,14.07,0,0,1,.93-10.08,10,10,0,0,1,3.83-3.76,12.1,12.1,0,0,1,5.32-1.65,6.83,6.83,0,0,1,2.91.42,3.73,3.73,0,0,1,2.05,2,7,7,0,0,1-.45,6,5.46,5.46,0,0,1-2.17,2.17,7.17,7.17,0,0,1-3,.82,14.55,14.55,0,0,1-6.32-1.22,12.88,12.88,0,0,1-5.16-3.74A13.89,13.89,0,0,1,575.56,76a12.77,12.77,0,0,1,0-6,10.16,10.16,0,0,1,1.13-2.69,9.13,9.13,0,0,1,1.88-2.13,17.69,17.69,0,0,1,4.77-2.65,21,21,0,0,1,4.86-1.25,26.74,26.74,0,0,1,8.34.28A36.13,36.13,0,0,1,601.84,63c.62.21,1.08.39,1.4.51a3.24,3.24,0,0,0,.49.17,4.1,4.1,0,0,0-.48-.24c-.32-.14-.79-.35-1.42-.58a33.85,33.85,0,0,0-5.49-1.58,26.15,26.15,0,0,0-8.62-.29,19.68,19.68,0,0,0-5,1.36,16,16,0,0,0-4.89,2.87A9.61,9.61,0,0,0,576,67.57a10.78,10.78,0,0,0-1,2.92,13.66,13.66,0,0,0,.3,6.31,14.35,14.35,0,0,0,3.13,5.72,15.37,15.37,0,0,0,12.07,4.64,7.25,7.25,0,0,0,3.17-1.1,6.22,6.22,0,0,0,2.16-2.53,8.28,8.28,0,0,0,.79-3.18,6.44,6.44,0,0,0-.62-3.17,4.46,4.46,0,0,0-2.4-2.11,7.49,7.49,0,0,0-3-.41,11.09,11.09,0,0,0-2.92.55,12.84,12.84,0,0,0-2.68,1.18,10.55,10.55,0,0,0-4.06,4,14.64,14.64,0,0,0-.95,10.53,14.19,14.19,0,0,0,2.1,4.54,12.07,12.07,0,0,0,3.47,3.2,12.26,12.26,0,0,1,1.73,1.31,4.6,4.6,0,0,1,1.09,1.68,7.29,7.29,0,0,1,.28,3.83,7.08,7.08,0,0,1-1.38,3.21,2.89,2.89,0,0,1-1.24.92,2.26,2.26,0,0,1-1.43,0,6,6,0,0,1-2.29-1.48,12.81,12.81,0,0,1-1.47-1.83A24.68,24.68,0,0,1,578.77,102.34Z" transform="translate(-157.59 -19.5)"/><path class="cls-2" d="M632.63,95.08c-5.48-4.87-13.75-13-17-24.17-4.89-17-.55-33-5-35.13l-12,4.86c-2.53,4.11-.61,21.35,2.9,33.48,5.73,19.81,9.34,23.08,15.54,31.19" transform="translate(-157.59 -19.5)"/><path class="cls-1" d="M617.14,105.31a4.45,4.45,0,0,0-.67-1.07c-.47-.69-1.2-1.67-2.13-2.94a56,56,0,0,1-6.74-11.38,133,133,0,0,1-6.18-18.68c-.9-3.59-1.65-7.41-2.24-11.4a82,82,0,0,1-1-12.39c0-1.11.07-2.23.19-3.33a14.22,14.22,0,0,1,.3-1.63c.08-.26.13-.53.22-.78l.16-.35.11-.23,6.32-2.58,3.36-1.37,1.68-.69.08,0h0s.09,0,.12.08a2.66,2.66,0,0,1,.47.53,8.44,8.44,0,0,1,.9,3.24c.14,1.18.2,2.39.24,3.59.12,4.84.1,9.71.53,14.4a65.24,65.24,0,0,0,2.49,13.29,41.22,41.22,0,0,0,5.16,10.65,56.41,56.41,0,0,0,5.89,7.29c1.81,1.9,3.36,3.31,4.44,4.26.54.48,1,.83,1.26,1.06a2.4,2.4,0,0,0,.46.34,17.34,17.34,0,0,0-1.6-1.63c-1.05-1-2.58-2.54-4.36-4.53a56.85,56.85,0,0,1-5.74-7.54A40.89,40.89,0,0,1,616,70.73a67.78,67.78,0,0,1-2.17-13.25c-.36-4.66-.26-9.47-.38-14.33a33,33,0,0,0-.3-3.67,6.74,6.74,0,0,0-1.42-3.63,2.49,2.49,0,0,0-.43-.36l-.36-.23c-.13-.08-.25-.18-.39-.08l-1,.42-1.66.67-3.29,1.32-3.24,1.31-1.6.65-.79.32-.54.22c-.06,0-.15,0-.18.1l-.08.18-.14.29a11,11,0,0,0-.9,3.45L597,45.79c0,.55,0,1.1,0,1.65A81.18,81.18,0,0,0,598,60a117,117,0,0,0,2.33,11.51,124.86,124.86,0,0,0,6.5,18.76A51,51,0,0,0,614,101.6c1,1.22,1.77,2.16,2.31,2.79A4.91,4.91,0,0,0,617.14,105.31Z" transform="translate(-157.59 -19.5)"/><ellipse class="cls-2" cx="634.68" cy="108.61" rx="21.46" ry="17.94" transform="translate(-160.56 -0.46) rotate(-1.71)"/><path class="cls-3" d="M656.06,108.13c.16,8.17-7,14.53-14.3,16.73-7.66,2.3-16.66.9-22.74-4.47a16.71,16.71,0,0,1-5.53-9.48,14.69,14.69,0,0,1,3.34-11.47c5-6.36,13.74-9,21.6-7.91,8.47,1.17,17.26,7.38,17.63,16.6,0,.87.15.08.13-.33-.33-8.41-6.72-14.69-14.59-16.86-8.6-2.38-18.83,0-24.61,7a17.13,17.13,0,0,0-.77,20.58c5.26,7.32,15.27,9.91,23.8,8a22.14,22.14,0,0,0,12.33-7.31,17.12,17.12,0,0,0,3.84-11.45C656.18,106.93,656.05,107.72,656.06,108.13Z" transform="translate(-157.59 -19.5)"/><ellipse class="cls-2" cx="777.29" cy="195.68" rx="21.04" ry="22.97" transform="translate(-102.53 523.82) rotate(-39.83)"/><path class="cls-3" d="M793.44,182.82c6.09,7.41,7.7,18,2,26.14-5,7.09-14.07,9.75-22.27,7.45a24.72,24.72,0,0,1-17.29-18.93,19.85,19.85,0,0,1,12-21.95c9.12-3.63,19.44,0,25.59,7.29-.15-.18.24-1,0-1.25-6.19-7.31-16.6-11-25.74-7.23-8.52,3.47-12.82,12.19-12.28,21.09a24.92,24.92,0,0,0,16.29,21.77c8.8,3.11,18.94.38,24.14-7.59,5.59-8.58,3.9-20.36-2.41-28C793.6,181.76,793.21,182.54,793.44,182.82Z" transform="translate(-157.59 -19.5)"/><ellipse class="cls-2" cx="763.05" cy="172.27" rx="18.94" ry="21.37" transform="translate(-176.78 147) rotate(-12.3)"/><path class="cls-3" d="M781.52,168.78c1.75,8.35-1.63,17.75-9.31,22-6.8,3.77-15.08,2.21-20.72-2.9a22.37,22.37,0,0,1-5.83-24.65c2.92-7.08,9.78-12.09,17.59-11.56,9.27.62,16.3,8.4,18.27,17.11a4,4,0,0,0,.07-1.08c-1.91-8.45-8.44-16.08-17.37-17.19s-16.54,4.92-19.18,13.12a25.13,25.13,0,0,0,4.55,23.55c5.64,6.57,15.16,9.18,22.91,4.69,8.31-4.81,11-15.24,9.09-24.17A3.24,3.24,0,0,0,781.52,168.78Z" transform="translate(-157.59 -19.5)"/><ellipse class="cls-2" cx="749.68" cy="200" rx="18.72" ry="20.76" transform="translate(-182.99 144.79) rotate(-12.3)"/><path class="cls-3" d="M767.94,196.55c1.72,8.21-1.78,17.33-9.32,21.43-6.7,3.64-14.86,2.18-20.44-2.81a21.43,21.43,0,0,1-5.65-23.84c2.9-7,9.71-11.81,17.37-11.36,9.08.54,16.1,8,18,16.58a3.58,3.58,0,0,0,.07-1.08c-1.88-8.3-8.38-15.64-17.13-16.66s-16.25,4.75-18.92,12.75a24.15,24.15,0,0,0,4.31,22.92c5.62,6.52,15.12,9,22.78,4.51,8.09-4.71,10.79-14.78,9-23.52A3.92,3.92,0,0,0,767.94,196.55Z" transform="translate(-157.59 -19.5)"/><ellipse class="cls-2" cx="740.57" cy="165.87" rx="16.78" ry="22.23" transform="translate(-162.22 2.73) rotate(-1.71)"/><path class="cls-3" d="M757.27,165.53c.19,7.91-3.32,17.2-10.93,20.72-6.8,3.14-14-.3-18-6.1a26.24,26.24,0,0,1-1.84-26c3.09-6.27,9.5-11.23,16.78-9.5,9.07,2.14,13.7,12.38,14,20.91,0,.87.15.08.13-.33-.29-8.13-3.74-17.4-11.65-21s-15.56,1.36-19.16,8.39a29.93,29.93,0,0,0-.33,25.19c3.26,7.06,10.62,13,18.72,10.24,9.23-3.11,12.63-14,12.42-22.84C757.38,164.33,757.26,165.12,757.27,165.53Z" transform="translate(-157.59 -19.5)"/><ellipse class="cls-2" cx="718.93" cy="200.02" rx="21.92" ry="22.23" transform="translate(-163.25 2.1) rotate(-1.71)"/><path class="cls-3" d="M740.77,199.53a21.85,21.85,0,0,1-43.46,3.39,21,21,0,0,1,3.19-14.32,22,22,0,0,1,22.19-9.86,22.23,22.23,0,0,1,18.08,20.79c0,.87.15.08.13-.33-.35-9.32-6-17.81-15-20.88a22,22,0,0,0-25,8.39,24.19,24.19,0,0,0-.7,25.51,21.76,21.76,0,0,0,36.64,1.24,23.76,23.76,0,0,0,4-14.26C740.88,198.32,740.76,199.12,740.77,199.53Z" transform="translate(-157.59 -19.5)"/><ellipse class="cls-2" cx="716.35" cy="145.29" rx="19.54" ry="20.91" transform="translate(-161.62 2) rotate(-1.71)"/><path class="cls-3" d="M735.81,144.88A20.62,20.62,0,0,1,723,164.37,19,19,0,0,1,702.19,159,20.84,20.84,0,0,1,700,134.45a19.16,19.16,0,0,1,19.74-9.11c9.21,1.75,15.76,10.34,16.1,19.54,0,.87.15.07.14-.34-.33-8.52-5.15-16.69-13.41-19.68s-17.6.58-22.35,8a23.8,23.8,0,0,0-.61,23.79c4.27,7.58,13.12,11.9,21.67,9.57a19.65,19.65,0,0,0,11.16-8.28A23.27,23.27,0,0,0,736,144.54C735.93,143.67,735.8,144.47,735.81,144.88Z" transform="translate(-157.59 -19.5)"/><ellipse class="cls-2" cx="717.36" cy="183.33" rx="19.06" ry="19.32" transform="translate(-162.76 2.05) rotate(-1.71)"/><path class="cls-3" d="M736.34,182.92a19,19,0,0,1-32.74,13.15,19.44,19.44,0,0,1-5-10.27,18.13,18.13,0,0,1,2.83-12.4,19,19,0,0,1,35,9.52c0,.88.15.08.14-.33a19.76,19.76,0,0,0-13-18.19,19.12,19.12,0,0,0-21.84,7.38,21.22,21.22,0,0,0-.61,22.11A18.93,18.93,0,0,0,733,195a20.79,20.79,0,0,0,3.48-12.42C736.46,181.72,736.33,182.52,736.34,182.92Z" transform="translate(-157.59 -19.5)"/><ellipse class="cls-2" cx="689.67" cy="193.03" rx="17" ry="18.4" transform="translate(-163.06 1.22) rotate(-1.71)"/><path class="cls-3" d="M706.59,192.69c.15,7.27-4.35,14.48-11.21,17.09a16.37,16.37,0,0,1-17.9-4.6,18.39,18.39,0,0,1-2-21.66,16.61,16.61,0,0,1,17-8c8.13,1.48,13.85,9.12,14.16,17.18,0,.87.15.08.13-.33-.29-7.47-4.39-14.68-11.62-17.37s-15.42.53-19.52,7a21.36,21.36,0,0,0-.52,21c3.72,6.72,11.54,10.6,19.09,8.42,8.37-2.42,12.75-10.79,12.57-19.08C706.71,191.49,706.58,192.28,706.59,192.69Z" transform="translate(-157.59 -19.5)"/><ellipse class="cls-2" cx="670.27" cy="192.07" rx="19.09" ry="19.99" transform="translate(-163.04 0.64) rotate(-1.71)"/><path class="cls-3" d="M689.29,191.67a19.78,19.78,0,0,1-12.54,18.61,18.75,18.75,0,0,1-20.23-5,19.59,19.59,0,0,1-2.22-23.59A18.92,18.92,0,0,1,673.53,173c8.88,1.63,15.42,9.74,15.76,18.67,0,.87.15.07.13-.34-.31-8.29-5.15-16.08-13.19-18.86a18.84,18.84,0,0,0-21.7,7.6,22.46,22.46,0,0,0-.65,22.85A18.66,18.66,0,0,0,686,204.07a21.94,21.94,0,0,0,3.41-12.74C689.41,190.46,689.28,191.26,689.29,191.67Z" transform="translate(-157.59 -19.5)"/><ellipse class="cls-2" cx="623.4" cy="178.08" rx="21.06" ry="19.32" transform="translate(-162.64 -0.77) rotate(-1.71)"/><path class="cls-3" d="M644.39,177.61c.17,8.37-6.31,15.5-13.95,18a22.39,22.39,0,0,1-22.36-4.85,18.52,18.52,0,0,1-5.48-10.29,17,17,0,0,1,3.2-12.32c4.76-6.67,13.33-9.77,21.32-8.51,8.9,1.41,16.9,8.6,17.27,18,0,.87.14.08.13-.33a19.9,19.9,0,0,0-14.35-18.16c-8.63-2.65-18.64.16-24.12,7.46a19.63,19.63,0,0,0-.76,22.08c4.94,7.57,14.65,10.8,23.3,8.75a21.48,21.48,0,0,0,12.06-7.7,19.48,19.48,0,0,0,3.87-12.43C644.5,176.41,644.38,177.21,644.39,177.61Z" transform="translate(-157.59 -19.5)"/><ellipse class="cls-2" cx="651.26" cy="177.56" rx="16.36" ry="20.84" transform="translate(-162.61 0.07) rotate(-1.71)"/><path class="cls-3" d="M667.55,177.24c.17,7.56-3.43,16.16-10.69,19.39-6.52,2.89-13.51-.13-17.52-5.63a23.77,23.77,0,0,1-1.82-24.38c3.09-6.05,9.42-10.54,16.42-8.94,8.62,2,13.3,11.37,13.61,19.56,0,.87.15.07.13-.33-.29-7.77-3.75-16.38-11.32-19.68s-15.12,1.12-18.72,7.88a27.24,27.24,0,0,0-.41,23.57c3.25,6.88,10.54,12.27,18.36,9.68,8.81-2.91,12.28-13,12.09-21.45C667.66,176,667.54,176.83,667.55,177.24Z" transform="translate(-157.59 -19.5)"/><ellipse class="cls-2" cx="696.85" cy="156.29" rx="19.5" ry="17.67" transform="matrix(0.02, -1, 1, 0.02, 369.64, 830.51)"/><path class="cls-3" d="M714.44,156.46c-.2,7.54-4.75,14.95-12,17.66a16.77,16.77,0,0,1-18.81-5.4,19.78,19.78,0,0,1-1.34-22.86c3.78-6,10.86-9.61,18-8.08,8.57,1.84,14.23,10.33,14.14,18.85,0,.7.13.72.14,0,.08-7.73-3.54-15.54-10.8-18.93-7.43-3.47-16-.64-20.74,5.85a22.77,22.77,0,0,0-2.06,22c3.25,7.25,10.88,12.09,18.9,10.53,9.08-1.77,14.45-10.54,14.7-19.31C714.59,156.39,714.47,155.59,714.44,156.46Z" transform="translate(-157.59 -19.5)"/><ellipse class="cls-2" cx="680.57" cy="141.13" rx="19.24" ry="21.76" transform="translate(-161.51 0.93) rotate(-1.71)"/><path class="cls-3" d="M699.73,140.72c.19,8.4-4.61,17.08-12.58,20.29-7.32,3-15.49.35-20.48-5.58a22.67,22.67,0,0,1-2.29-25.57c3.88-6.81,11.5-11.1,19.39-9.54,9.45,1.87,15.62,11.13,16,20.4,0,.87.15.07.14-.34-.33-8.65-4.92-17.37-13.37-20.53s-17.3.83-21.82,8.23a25.8,25.8,0,0,0-.62,24.73c4.08,7.69,12.78,12.53,21.44,10,9.74-2.83,14.58-12.91,14.37-22.45C699.85,139.51,699.72,140.31,699.73,140.72Z" transform="translate(-157.59 -19.5)"/><ellipse class="cls-2" cx="668.78" cy="170.76" rx="19.58" ry="20.18" transform="translate(327.65 816.65) rotate(-88.9)"/><path class="cls-3" d="M688.89,171c-.23,8.15-6,15.25-13.7,17.73a20.76,20.76,0,0,1-21.39-5.48,19.15,19.15,0,0,1-5-10.58,18,18,0,0,1,3.34-12.35,20.6,20.6,0,0,1,20.66-8.1c8.91,1.75,16.19,9.67,16.09,19,0,.7.13.72.14,0a20.13,20.13,0,0,0-12.51-19.09,20.26,20.26,0,1,0-4.12,38.59A20.1,20.1,0,0,0,689,171.31C689,170.91,688.92,170.1,688.89,171Z" transform="translate(-157.59 -19.5)"/><ellipse class="cls-2" cx="695.82" cy="112.88" rx="21.87" ry="22.97" transform="translate(-165.67 131.32) rotate(-12.3)"/><path class="cls-3" d="M717.16,108.76a22.27,22.27,0,0,1-11,23.92A21.54,21.54,0,0,1,682.29,130a22.88,22.88,0,0,1-6.49-26.26A21.55,21.55,0,0,1,696.39,90.6c10.21.49,18.56,8.37,20.77,18.16a4,4,0,0,0,.07-1.08c-2.13-9.39-9.74-17.12-19.5-18.22a21.6,21.6,0,0,0-22.34,14A25.44,25.44,0,0,0,680,129c6.56,7.29,17.43,9.61,26.18,4.91,9.38-5,13.17-16.17,11.06-26.25A3.24,3.24,0,0,0,717.16,108.76Z" transform="translate(-157.59 -19.5)"/><ellipse class="cls-2" cx="681.37" cy="80.03" rx="21.63" ry="21.23" transform="translate(-159 127.48) rotate(-12.3)"/><path class="cls-3" d="M702.46,76c1.89,9-3.2,18.2-11.27,22.3a22,22,0,0,1-23.33-2.17,21,21,0,0,1-7.11-10.19,19.21,19.21,0,0,1,1.11-14.22,22,22,0,0,1,20.25-12.27A21.5,21.5,0,0,1,702.46,76a3.24,3.24,0,0,0,.07-1.08,21.55,21.55,0,0,0-19-16.64,22.06,22.06,0,0,0-22.2,13.45,22.44,22.44,0,0,0,4.35,23.65,22,22,0,0,0,25.87,4c8.86-4.69,13.06-14.8,11-24.47A4,4,0,0,0,702.46,76Z" transform="translate(-157.59 -19.5)"/><ellipse class="cls-2" cx="671.95" cy="106.5" rx="20.56" ry="20.69" transform="translate(-164.85 126.08) rotate(-12.3)"/><path class="cls-3" d="M692,102.66c1.81,8.63-2.8,17.57-10.56,21.6A20.68,20.68,0,0,1,659.11,122a19.86,19.86,0,0,1-5.75-23.76A20.52,20.52,0,0,1,692,102.66a3.27,3.27,0,0,0,.07-1.08,20.93,20.93,0,0,0-18.29-16.31,20.7,20.7,0,0,0-21,13.15A22.33,22.33,0,0,0,657,121.31a20.72,20.72,0,0,0,24.57,4.12c8.61-4.57,12.43-14.53,10.48-23.85A3.92,3.92,0,0,0,692,102.66Z" transform="translate(-157.59 -19.5)"/><ellipse class="cls-2" cx="617.28" cy="155.3" rx="19.82" ry="17.75" transform="translate(-161.96 -0.96) rotate(-1.71)"/><path class="cls-3" d="M637,154.87c.15,7.81-6.15,14.29-13.24,16.54A21.43,21.43,0,0,1,602.92,167a16.93,16.93,0,0,1-5.19-9.37,15.21,15.21,0,0,1,3-11.31c4.49-6.2,12.56-9,20-7.9,8.24,1.24,16,7.71,16.31,16.46,0,.87.15.07.13-.33-.32-8-5.84-14.39-13.39-16.69-8.1-2.47-17.59,0-22.82,6.87a17.85,17.85,0,0,0-.72,20.34c4.71,7.08,13.94,9.95,22,8A20.23,20.23,0,0,0,633.52,166a17.72,17.72,0,0,0,3.63-11.46C637.13,153.66,637,154.46,637,154.87Z" transform="translate(-157.59 -19.5)"/><ellipse class="cls-2" cx="642.58" cy="157.96" rx="19.89" ry="17.93" transform="translate(-162.03 -0.2) rotate(-1.71)"/><path class="cls-3" d="M662.4,157.53c.16,7.87-6.14,14.43-13.29,16.72a21.45,21.45,0,0,1-20.94-4.47,17.17,17.17,0,0,1-5.21-9.47,15.43,15.43,0,0,1,3-11.44c4.5-6.24,12.59-9.1,20.09-8,8.31,1.26,16,7.83,16.38,16.63,0,.88.15.08.13-.33a18.5,18.5,0,0,0-13.44-16.85c-8.14-2.5-17.68.06-22.91,6.93a18.11,18.11,0,0,0-.72,20.54c4.72,7.13,14,10.05,22.13,8.1a20.3,20.3,0,0,0,11.3-7.15,17.89,17.89,0,0,0,3.64-11.57C662.52,156.33,662.39,157.13,662.4,157.53Z" transform="translate(-157.59 -19.5)"/><ellipse class="cls-2" cx="607.33" cy="126.01" rx="22.58" ry="19.6" transform="translate(-161.09 -1.27) rotate(-1.71)"/><path class="cls-3" d="M629.83,125.5c.18,8.76-7.09,15.84-15,18.32-8.15,2.56-17.7.92-24.05-4.95A18.37,18.37,0,0,1,585,128.54a16.54,16.54,0,0,1,3.36-12.45c5.2-7,14.46-10,22.91-8.79,9.18,1.35,18.15,8.35,18.53,18.2,0,.87.15.08.14-.33-.36-9-6.93-16-15.39-18.41-9.11-2.62-19.84.06-25.84,7.62a19.14,19.14,0,0,0-.87,22.37c5.44,7.92,16,10.95,25.1,8.83a23.15,23.15,0,0,0,12.74-7.69A19.13,19.13,0,0,0,630,125.17C630,124.3,629.82,125.1,629.83,125.5Z" transform="translate(-157.59 -19.5)"/><ellipse class="cls-2" cx="626.43" cy="129.52" rx="18.52" ry="17.94" transform="translate(-161.19 -0.7) rotate(-1.71)"/><path class="cls-3" d="M644.88,129.13c.15,7.55-5.34,14.3-12.31,16.68A19,19,0,0,1,613,141.29a17.62,17.62,0,0,1-4.83-9.38,16.19,16.19,0,0,1,2.75-11.55,18.93,18.93,0,0,1,18.62-7.9c8.17,1.33,15,8.24,15.33,16.67,0,.88.15.08.13-.33a18.38,18.38,0,0,0-12.66-16.91,18.62,18.62,0,1,0-1.25,35.61A18.27,18.27,0,0,0,645,128.8C645,127.93,644.87,128.73,644.88,129.13Z" transform="translate(-157.59 -19.5)"/><ellipse class="cls-2" cx="659.66" cy="138.04" rx="19.24" ry="21.76" transform="translate(-161.43 0.3) rotate(-1.71)"/><path class="cls-3" d="M678.83,137.63c.19,8.41-4.61,17.09-12.59,20.3-7.32,2.95-15.49.35-20.47-5.58a22.67,22.67,0,0,1-2.3-25.57c3.89-6.81,11.51-11.1,19.39-9.54,9.45,1.86,15.62,11.13,16,20.39,0,.88.15.08.13-.33-.32-8.65-4.92-17.37-13.36-20.53s-17.31.83-21.83,8.23a25.85,25.85,0,0,0-.62,24.73c4.09,7.69,12.78,12.53,21.45,10,9.73-2.83,14.58-12.91,14.36-22.45C678.94,136.43,678.82,137.23,678.83,137.63Z" transform="translate(-157.59 -19.5)"/><ellipse class="cls-2" cx="652.62" cy="92.55" rx="18.3" ry="21.23" transform="translate(-162.33 121.65) rotate(-12.3)"/><path class="cls-3" d="M670.46,89.19c1.73,8.24-1.4,17.7-9.06,21.89-6.6,3.6-14.53,1.87-19.89-3.12a22.72,22.72,0,0,1-5.78-24.42c2.76-7,9.45-12.09,17.17-11.41,9,.79,15.65,8.63,17.56,17.06a3.2,3.2,0,0,0,.07-1.07c-1.85-8.2-8-15.85-16.68-17.13s-16.06,4.67-18.62,12.64a25.57,25.57,0,0,0,4.3,23.47c5.35,6.5,14.53,9.43,22.15,5.07,8.28-4.74,10.7-15.26,8.85-24A3.87,3.87,0,0,0,670.46,89.19Z" transform="translate(-157.59 -19.5)"/></g><g id="Calque_16" data-name="Calque 16"><path class="cls-2" d="M620.87,64.91a64.87,64.87,0,0,1,1.07,10.14c.89,34.08-24.84,62.39-57.45,63.23-29.3.76-54.19-20.91-59.58-50" transform="translate(-157.59 -19.5)"/><path class="cls-1" d="M504.91,88.24a5.88,5.88,0,0,0,.21,1.61c.1.53.22,1.18.37,1.94a23.53,23.53,0,0,0,.59,2.63,62.67,62.67,0,0,0,6.74,15.77,46.42,46.42,0,0,0,3.19,4.75l1.83,2.43c.67.78,1.39,1.56,2.1,2.36a56.3,56.3,0,0,0,4.71,4.68l.63.59.68.53,1.38,1.09,1.4,1.09.71.55.75.5c1,.65,2,1.32,3.08,2s2.18,1.19,3.28,1.8l1.69.9c.57.28,1.18.5,1.77.76,1.19.49,2.38,1,3.62,1.48A60.69,60.69,0,0,0,559.55,139a57.28,57.28,0,0,0,18.07-1.77,55.28,55.28,0,0,0,8.89-3.14,57.89,57.89,0,0,0,8.31-4.57,63.52,63.52,0,0,0,7.42-5.78,64.25,64.25,0,0,0,6.3-6.73,63.43,63.43,0,0,0,8.91-14.89,65.07,65.07,0,0,0,4.17-14.57,62.73,62.73,0,0,0,.76-12,55.47,55.47,0,0,0-.75-7.86c-.15-.91-.29-1.61-.4-2.08a2.21,2.21,0,0,0-.21-.7c-.06,0,.1,1,.31,2.91a65.33,65.33,0,0,1,.44,8,63.55,63.55,0,0,1-9.64,34,66.32,66.32,0,0,1-5.18,7.08,59.42,59.42,0,0,1-13.68,11.89A56.51,56.51,0,0,1,568,137.29c-.71.09-1.42.09-2.13.14s-1.41.09-2.1,0l-4.14-.09a60.35,60.35,0,0,1-15.49-3.13c-1.2-.44-2.36-1-3.52-1.43-.58-.25-1.17-.46-1.73-.74l-1.65-.86c-1.08-.59-2.2-1.09-3.21-1.74l-3-1.93-.74-.47-.7-.53-1.37-1.06-1.36-1-.67-.52-.62-.57a55.7,55.7,0,0,1-4.66-4.52c-.71-.78-1.42-1.53-2.09-2.28L517,114.21a48.49,48.49,0,0,1-3.2-4.6,67.68,67.68,0,0,1-7.1-15.36,26.44,26.44,0,0,1-.73-2.57l-.51-1.89A6.86,6.86,0,0,0,504.91,88.24Z" transform="translate(-157.59 -19.5)"/><ellipse class="cls-2" cx="562.28" cy="72.26" rx="58.87" ry="38.34" transform="translate(-160.22 100.34) rotate(-12.14)"/><path class="cls-1" d="M619.83,59.89a2.74,2.74,0,0,0-.09-.67,13.84,13.84,0,0,0-.47-1.92A23.87,23.87,0,0,0,616,50.42a31.54,31.54,0,0,0-3.48-4.29,39.7,39.7,0,0,0-5-4.26A50.45,50.45,0,0,0,593.15,35c-11.33-3.42-25.88-4.12-41.13-.49a85,85,0,0,0-22.81,8.91c-7.36,4.27-14.48,9.9-19.66,17.46a35.17,35.17,0,0,0-5.72,13.45,26.75,26.75,0,0,0,1.59,15,30.58,30.58,0,0,0,9.48,12.1,46.93,46.93,0,0,0,13.62,7.26,74.28,74.28,0,0,0,29.87,3.44,90.48,90.48,0,0,0,27.34-6.56,72.49,72.49,0,0,0,20.9-12.94,45.36,45.36,0,0,0,11.62-15.63,28.54,28.54,0,0,0,2.43-12.61c0-.76-.12-1.42-.18-2a10.22,10.22,0,0,0-.24-1.44,6.66,6.66,0,0,0-.28-1.16c-.1,0,.33,1.67.38,4.75a29.34,29.34,0,0,1-2.86,12.66,46.56,46.56,0,0,1-12.14,15.38,73.41,73.41,0,0,1-21.25,12.45,90,90,0,0,1-27.32,5.9,71.35,71.35,0,0,1-29.15-4.09,43.78,43.78,0,0,1-12.78-7.39,28.41,28.41,0,0,1-8.38-11.61,25,25,0,0,1-1-13.8,31,31,0,0,1,2.09-6.48,40.76,40.76,0,0,1,3.28-5.82c5-7.29,11.93-12.81,19.12-17A84.07,84.07,0,0,1,552.36,36c15-3.65,29.31-3.08,40.48.14a50.29,50.29,0,0,1,14.21,6.49,40.13,40.13,0,0,1,5,4.07,31.07,31.07,0,0,1,3.5,4.11A25.6,25.6,0,0,1,619,57.39C619.55,59,619.75,59.9,619.83,59.89Z" transform="translate(-157.59 -19.5)"/><path class="cls-4" d="M583.17,38.64,564.51,64.13a.91.91,0,0,0,1.06,1.39l41-15.48C601.24,44.37,593,40.4,583.17,38.64Z" transform="translate(-157.59 -19.5)"/><path class="cls-4" d="M612.79,61.4a23.36,23.36,0,0,0-5-10.06L566.35,65.87a.91.91,0,0,0,.12,1.74l46.74.15A22.31,22.31,0,0,0,612.79,61.4Z" transform="translate(-157.59 -19.5)"/><path class="cls-4" d="M565.32,68.46a.91.91,0,0,0-.61,1.64L599.57,91C607,84.75,611.82,77.3,613,69.7Z" transform="translate(-157.59 -19.5)"/><path class="cls-4" d="M598.59,91.78,563,71.12c-1.21-.7-1.63-.16-1.54.74l4,34q1.9-.31,3.84-.72A71,71,0,0,0,598.59,91.78Z" transform="translate(-157.59 -19.5)"/><path class="cls-4" d="M558.42,71.76,530,102.58c9.39,4,21.46,5.4,34.26,3.5L560.05,72.3C559.66,71,559,71.05,558.42,71.76Z" transform="translate(-157.59 -19.5)"/><path class="cls-4" d="M554.72,71.3l-42.8,12.4c1.94,8,8.15,14.32,16.91,18.34l26.76-29.27C556.18,71.51,555.61,71.13,554.72,71.3Z" transform="translate(-157.59 -19.5)"/><path class="cls-4" d="M554,68.85l-37.41-6.23c-4.3,6.29-6.2,13.16-5,19.86l42.52-11.92C555.26,69.67,554.9,69.09,554,68.85Z" transform="translate(-157.59 -19.5)"/><path class="cls-4" d="M532.1,48.45a51.76,51.76,0,0,0-14.7,13.08L554.7,68c1.37-.27,1.33-1,.67-1.57Z" transform="translate(-157.59 -19.5)"/><path class="cls-4" d="M551.37,40.3a73.81,73.81,0,0,0-17.59,7.16L556.2,65.87c1.28.57,1.64,0,1.46-.9Z" transform="translate(-157.59 -19.5)"/><path class="cls-4" d="M555.2,39.37c-.79.17-1.58.36-2.37.55l6.08,24.44c.61,1.25,2.87.91,3.3.12l19.68-26.06A73.35,73.35,0,0,0,555.2,39.37Z" transform="translate(-157.59 -19.5)"/><path class="cls-2" d="M331,69.4A67.9,67.9,0,0,0,332.7,80c8.51,34.87,42.46,56.54,75.84,48.4,30-7.32,49.29-36.21,46.74-67.3" transform="translate(-157.59 -19.5)"/><path class="cls-1" d="M455.28,61.11a6.68,6.68,0,0,0-.1,1.72v2.06c0,.82.08,1.76,0,2.81a70.74,70.74,0,0,1-3,17.57,51.17,51.17,0,0,1-2,5.56L449,93.73c-.47,1-1,1.91-1.5,2.9a57.4,57.4,0,0,1-3.49,5.88l-.47.75L443,104l-1.09,1.44-1.11,1.45-.56.73-.62.69-2.53,2.79c-.85.94-1.86,1.76-2.79,2.66l-1.44,1.33c-.49.43-1,.81-1.55,1.22-1,.8-2.09,1.65-3.19,2.42a63.55,63.55,0,0,1-14.87,7.47,59,59,0,0,1-18.34,3.11,54.87,54.87,0,0,1-9.64-.69,59.16,59.16,0,0,1-9.46-2.25,64.78,64.78,0,0,1-8.93-3.7,64.63,64.63,0,0,1-21.07-17.23,70,70,0,0,1-14.16-33.08,28.38,28.38,0,0,0-.46-2.94,2.52,2.52,0,0,0,0,.79c0,.52.07,1.29.16,2.28a57.73,57.73,0,0,0,1.44,8.38A64.31,64.31,0,0,0,336.93,93a66.47,66.47,0,0,0,14.55,20.4,68,68,0,0,0,7.28,6,63.2,63.2,0,0,0,17.46,8.67,60.46,60.46,0,0,0,19.33,2.83A61.87,61.87,0,0,0,405,130c.77-.11,1.51-.31,2.26-.46s1.5-.29,2.22-.53l4.29-1.27A64,64,0,0,0,429,120c1.13-.79,2.18-1.68,3.26-2.5.53-.43,1.09-.82,1.59-1.27l1.47-1.37c1-.93,2-1.77,2.84-2.74s1.72-1.94,2.57-2.88l.63-.71.57-.76,1.12-1.5,1.1-1.48.54-.73.48-.77a60.85,60.85,0,0,0,3.5-6.06c.5-1,1-2,1.48-3l1.19-3a49.13,49.13,0,0,0,1.93-5.7,65.92,65.92,0,0,0,2.5-17.9,26.64,26.64,0,0,0-.12-2.83l-.16-2.07A7.46,7.46,0,0,0,455.28,61.11Z" transform="translate(-157.59 -19.5)"/><ellipse class="cls-2" cx="392.56" cy="60.71" rx="61.99" ry="40.37" transform="translate(-160.27 1.51) rotate(-3.06)"/><path class="cls-1" d="M330.66,64a25.19,25.19,0,0,0,.18-2.76,27.6,27.6,0,0,1,1.68-7.69A33.08,33.08,0,0,1,335,48.42a40.85,40.85,0,0,1,3.92-5.5A52.8,52.8,0,0,1,351.53,32.4C362,26,376.38,21.5,392.62,21.08a88.94,88.94,0,0,1,25.19,2.79c8.47,2.28,17.05,6,24.13,12a35.54,35.54,0,0,1,9.11,11.54,26.38,26.38,0,0,1,2.39,14.79,30.53,30.53,0,0,1-6,14.17,48.07,48.07,0,0,1-11.43,10.79,76.88,76.88,0,0,1-28.8,11.59,94.7,94.7,0,0,1-29.14,1,75.79,75.79,0,0,1-24.46-7.09,47.36,47.36,0,0,1-15.92-12.23,30.28,30.28,0,0,1-6-11.72c-.74-3-.76-4.74-.86-4.73a7,7,0,0,0,0,1.29,13.36,13.36,0,0,0,.16,1.55,17.21,17.21,0,0,0,.39,2.11,30.05,30.05,0,0,0,6.14,12.31A49,49,0,0,0,354.1,93.94a78.42,78.42,0,0,0,25.22,7.16,95.61,95.61,0,0,0,29.77-1.32,76.08,76.08,0,0,0,29.1-12.24,47.42,47.42,0,0,0,11.35-11.35,31.41,31.41,0,0,0,5.64-14.84,27.91,27.91,0,0,0-2.92-15.18,33.88,33.88,0,0,0-4.11-6.33A44.35,44.35,0,0,0,443,34.63a53.29,53.29,0,0,0-5.76-4.24A61.81,61.81,0,0,0,431.1,27a72.2,72.2,0,0,0-12.88-4.68,89.67,89.67,0,0,0-25.64-2.76c-16.5.52-31.09,5.24-41.67,11.85a52.86,52.86,0,0,0-12.74,10.92A41.6,41.6,0,0,0,334.26,48a33.55,33.55,0,0,0-2.35,5.32,25.45,25.45,0,0,0-1.4,7.88,15.21,15.21,0,0,0,.06,2.08A2.52,2.52,0,0,0,330.66,64Z" transform="translate(-157.59 -19.5)"/><path class="cls-5" d="M362.05,32.3l26,20.75a1,1,0,0,1-.69,1.71l-46-4.4C345.27,43.11,352.58,36.8,362.05,32.3Z" transform="translate(-157.59 -19.5)"/><path class="cls-5" d="M338.24,63.61A24.52,24.52,0,0,1,340.55,52l46.11,3.33a1,1,0,0,1,.36,1.81l-47.46,13A23.75,23.75,0,0,1,338.24,63.61Z" transform="translate(-157.59 -19.5)"/><path class="cls-5" d="M388.42,57.68a1,1,0,0,1,1.08,1.5L359.83,90c-9.25-4.28-16.22-10.52-19.52-17.92Z" transform="translate(-157.59 -19.5)"/><path class="cls-5" d="M361.05,90.56l30.46-30.82c1-1,1.62-.61,1.78.33l5.27,35.69c-1.36.14-2.72.25-4.11.33A74.7,74.7,0,0,1,361.05,90.56Z" transform="translate(-157.59 -19.5)"/><path class="cls-5" d="M396.34,59.13l37.37,23.48c-8.45,6.64-20.32,11.41-33.85,13l-5-35.49C394.86,58.66,395.57,58.56,396.34,59.13Z" transform="translate(-157.59 -19.5)"/><path class="cls-5" d="M400,57.64l46.92.79c.23,8.66-4.34,16.81-12.13,23.31L399.5,59.38C398.55,58.26,399,57.72,400,57.64Z" transform="translate(-157.59 -19.5)"/><path class="cls-5" d="M400,55,436.3,38.31c6.11,5.21,9.93,11.66,10.53,18.81l-46.51-.38C399,56.14,399.18,55.45,400,55Z" transform="translate(-157.59 -19.5)"/><path class="cls-5" d="M416.66,28.18a54.24,54.24,0,0,1,18.55,9.24L399.07,54.23c-1.46.1-1.61-.6-1.11-1.41Z" transform="translate(-157.59 -19.5)"/><path class="cls-5" d="M394.83,25.22a77.85,77.85,0,0,1,19.85,2.41L397,52.53c-1.13.93-1.67.45-1.73-.51Z" transform="translate(-157.59 -19.5)"/><path class="cls-5" d="M390.67,25.33c.86,0,1.72-.08,2.57-.1l.57,26.52c-.27,1.44-2.67,1.72-3.33,1l-27.19-21A77.37,77.37,0,0,1,390.67,25.33Z" transform="translate(-157.59 -19.5)"/></g><g id="Calque_17" data-name="Calque 17"><path class="cls-1" d="M357.85,105.07a35.65,35.65,0,0,1-1.88,3.52,10.53,10.53,0,0,1-1.34,1.62,5.29,5.29,0,0,1-2,1.28,1.9,1.9,0,0,1-1.18,0,2.53,2.53,0,0,1-1-.78,6.29,6.29,0,0,1-1.18-2.83,6.37,6.37,0,0,1,.26-3.34A5.37,5.37,0,0,1,352,102a11.3,11.3,0,0,0,3.23-3,13.18,13.18,0,0,0,2-4.22,13.55,13.55,0,0,0-.88-9.81,10,10,0,0,0-3.8-3.76,11.84,11.84,0,0,0-5.24-1.62,7,7,0,0,0-3,.45,4.35,4.35,0,0,0-2.34,2.26,6.27,6.27,0,0,0-.47,3.16,7.6,7.6,0,0,0,.92,3.06,6,6,0,0,0,2.32,2.32,7.47,7.47,0,0,0,3.14.84,14.07,14.07,0,0,0,6.13-1.19,12.64,12.64,0,0,0,5-3.67,13.39,13.39,0,0,0,2.65-5.45,12.31,12.31,0,0,0,0-5.88,9.74,9.74,0,0,0-1.14-2.65,9,9,0,0,0-1.87-2.1,13,13,0,0,0-2.25-1.45,23.62,23.62,0,0,0-2.31-1,19,19,0,0,0-4.58-1.12,24,24,0,0,0-7.76.38A29.36,29.36,0,0,0,336.78,69a7.82,7.82,0,0,0-1.66.78,13.53,13.53,0,0,0,1.79-.57,36.1,36.1,0,0,1,5-1.24,24.17,24.17,0,0,1,7.74-.08,17.49,17.49,0,0,1,4.43,1.29,13.92,13.92,0,0,1,4.25,2.58,7.93,7.93,0,0,1,1.55,2,9.19,9.19,0,0,1,.84,2.48,11.94,11.94,0,0,1-.32,5.43,12.53,12.53,0,0,1-2.74,4.87,13.2,13.2,0,0,1-10.3,3.88,5,5,0,0,1-4.15-2.83,6,6,0,0,1-.15-5c.72-1.43,2.48-1.9,4.1-1.79a10.13,10.13,0,0,1,8,4.73,12.43,12.43,0,0,1,.83,8.92,12.12,12.12,0,0,1-1.75,3.88,10.17,10.17,0,0,1-2.92,2.74,12.29,12.29,0,0,0-1.65,1.29,4.92,4.92,0,0,0-1.14,1.8,7.25,7.25,0,0,0-.23,3.84,7,7,0,0,0,1.44,3.18,3.22,3.22,0,0,0,1.4,1,2.73,2.73,0,0,0,1.63,0,5.88,5.88,0,0,0,2.22-1.53,10.76,10.76,0,0,0,1.33-1.77,13,13,0,0,0,1.25-2.76A2.84,2.84,0,0,0,357.85,105.07Z" transform="translate(-157.59 -19.5)"/><path class="cls-2" d="M308.93,98.48c5-4.42,12.5-11.77,15.42-22,4.45-15.48.51-30,4.54-31.9L339.75,49c2.31,3.73.56,19.39-2.63,30.41-5.2,18-8.48,21-14.12,28.34" transform="translate(-157.59 -19.5)"/><path class="cls-1" d="M323,107.78s.31-.26.8-.84,1.21-1.41,2.12-2.53a46.48,46.48,0,0,0,6.52-10.27,113,113,0,0,0,5.91-17,105.91,105.91,0,0,0,2.13-10.45,75.46,75.46,0,0,0,.94-11.44,28.51,28.51,0,0,0-.19-3.17,11.79,11.79,0,0,0-.3-1.62c-.08-.28-.13-.55-.23-.83l-.44-.94c0-.15-.21-.14-.31-.21l-.28-.11-.37-.15-.75-.3-1.49-.61L334,46,331,44.81l-1.53-.62-.34-.14-.19-.08a.32.32,0,0,0-.09,0l-.09.05c-.2.13-.48.28-.63.4a3.76,3.76,0,0,0-.68.77,8.57,8.57,0,0,0-1,3.43c-.13,1.13-.18,2.25-.21,3.36-.09,4.45-.05,8.81-.41,13a59,59,0,0,1-2.12,11.89,37.63,37.63,0,0,1-4.46,9.5A55,55,0,0,1,314.12,93c-1.59,1.75-2.94,3.07-3.87,4a14.62,14.62,0,0,0-1.4,1.43s.16-.09.44-.31.67-.54,1.18-1c1-.88,2.46-2.18,4.15-3.95a48.87,48.87,0,0,0,5.44-6.75,37.05,37.05,0,0,0,4.68-9.83,61.06,61.06,0,0,0,2.18-12.17c.39-4.27.35-8.69.5-13a30.4,30.4,0,0,1,.28-3.21,5.3,5.3,0,0,1,1-2.69l.18-.16.05,0,.55.23,1.5.62,3,1.22c1,.4,2,.81,2.94,1.2l1.45.6.72.29.21.09s0,0,0,.08a8.62,8.62,0,0,1,.68,2.72l.12,1.45,0,1.45a75,75,0,0,1-.91,11.25,104.81,104.81,0,0,1-2,10.35,120.32,120.32,0,0,1-5.6,17,50.76,50.76,0,0,1-6.1,10.34c-.84,1.15-1.5,2-1.93,2.67A4.38,4.38,0,0,0,323,107.78Z" transform="translate(-157.59 -19.5)"/><ellipse class="cls-2" cx="307.08" cy="110.77" rx="16.29" ry="19.49" transform="translate(29.58 394.89) rotate(-88.29)"/><path class="cls-3" d="M287.53,110c-.14,7.5,4.7,13.54,11.59,16.18,7.69,2.94,17.33,1.56,23.17-4.49a15.66,15.66,0,0,0,2.41-18.38c-4.05-7.16-13-10.32-20.85-9.29-8.39,1.09-16,7.13-16.32,16,0,.4.09,1.21.13.33C288,103,294.35,97.6,301,95.84c7-1.84,15-.28,20.4,4.67a15.45,15.45,0,0,1,4.88,8.58c.68,3.84-.89,7.78-3.39,10.67-4.72,5.47-12.52,7.52-19.49,6.36-7.62-1.27-15.94-7.28-15.78-15.77C287.67,110,287.54,109.14,287.53,110Z" transform="translate(-157.59 -19.5)"/><ellipse class="cls-2" cx="177.55" cy="189.85" rx="20.86" ry="19.11" transform="translate(-239.56 185.08) rotate(-50.17)"/><path class="cls-3" d="M162.87,177c-5.1,6.23-6.87,15.26-3.67,22.79a18.28,18.28,0,0,0,20.42,10.5,22.5,22.5,0,0,0,17.45-17.79c1.46-7.82-1.11-16.28-8.06-20.66-8.63-5.43-19.82-2.28-26.14,5.16-.23.28.15,1.08,0,1.25,4.95-5.84,12.78-9.15,20.41-7.49a18,18,0,0,1,14,16.59c.45,8.65-5.57,17-13.36,20.35-6.88,3-15.14,2-20.66-3.24a18.21,18.21,0,0,1-5.49-12.07,21.17,21.17,0,0,1,5.08-14.14C163.11,178,162.72,177.17,162.87,177Z" transform="translate(-157.59 -19.5)"/><ellipse class="cls-2" cx="190.48" cy="168.59" rx="19.41" ry="17.2" transform="translate(-172.41 299.29) rotate(-77.7)"/><path class="cls-3" d="M173.64,164.39c-1.52,7.26.11,15.52,6,20.46,6.17,5.2,15,4.58,21-.56s8.24-13.38,6.88-20.94-7.31-14.25-15.34-14.68c-9.28-.49-16.58,7.15-18.52,15.72a3.3,3.3,0,0,0,.07,1.08c1.6-7.06,6.74-13.4,14-15.13a16,16,0,0,1,17.35,7.6,20,20,0,0,1-2.26,22.94c-4.39,5.15-11.45,7.81-18,5.6-8.56-2.87-12.8-12.52-11-21A4,4,0,0,0,173.64,164.39Z" transform="translate(-157.59 -19.5)"/><ellipse class="cls-2" cx="202.62" cy="193.77" rx="18.86" ry="17" transform="translate(-187.46 330.96) rotate(-77.7)"/><path class="cls-3" d="M186,189.61c-1.47,7,.15,15,5.79,19.8,6.08,5.22,15,4.75,21-.34,5.77-4.91,8-12.93,6.71-20.27-1.36-7.5-7.25-13.9-15.1-14.4-9.11-.58-16.43,6.76-18.35,15.21a3.27,3.27,0,0,0,.07,1.08c1.57-6.9,6.68-13,13.73-14.66a16,16,0,0,1,17.17,7.45,19.12,19.12,0,0,1-2.08,22.18c-4.36,5.11-11.37,7.64-17.88,5.47-8.34-2.78-12.68-12.1-10.94-20.44A4,4,0,0,0,186,189.61Z" transform="translate(-157.59 -19.5)"/><ellipse class="cls-2" cx="210.9" cy="162.78" rx="20.19" ry="15.24" transform="translate(-115.71 349.21) rotate(-88.29)"/><path class="cls-3" d="M195.6,162.15c-.17,7.35,2.19,15.8,8.94,19.74s14.11.39,18-5.68c4.17-6.55,4.81-15.57,2.24-22.84-2.37-6.69-8.55-12.84-16.19-11.12-8.73,2-12.66,11.86-13,19.9,0,.41.1,1.21.13.34.27-7.13,3.7-15.22,10.6-18.25,6.17-2.7,12.6.39,16.12,5.73a23.64,23.64,0,0,1,.88,23.56c-3,5.63-8.9,10.11-15.53,8.46-8.28-2.07-12.24-11.72-12.07-19.5C195.74,162.09,195.62,161.28,195.6,162.15Z" transform="translate(-157.59 -19.5)"/><ellipse class="cls-2" cx="230.55" cy="193.8" rx="20.19" ry="19.91" transform="translate(-127.65 398.94) rotate(-88.29)"/><path class="cls-3" d="M210.59,193c-.18,8.35,4,16.29,11.81,19.82A19.92,19.92,0,0,0,246,207.18a22.06,22.06,0,0,0,2.59-22.67,20,20,0,0,0-21.17-11.27c-9.75,1.59-16.43,10.16-16.8,19.79,0,.4.1,1.21.13.34a20.2,20.2,0,0,1,13.74-18.17,19.89,19.89,0,0,1,20.92,5.74A20.14,20.14,0,0,1,250.3,192a19.17,19.17,0,0,1-3.37,12.6,19.8,19.8,0,0,1-36.21-11.26C210.73,193,210.61,192.16,210.59,193Z" transform="translate(-157.59 -19.5)"/><ellipse class="cls-2" cx="232.9" cy="144.09" rx="18.99" ry="17.75" transform="translate(-75.69 353.07) rotate(-88.29)"/><path class="cls-3" d="M215.09,143.39c-.16,7.69,3.4,15.32,10.6,18.71a17.23,17.23,0,0,0,20.77-5.2A21.63,21.63,0,0,0,249,135.27c-3.22-7.22-10.85-11.91-18.79-10.56-9,1.54-14.73,9.9-15.07,18.68,0,.4.1,1.21.13.33a18.93,18.93,0,0,1,12.12-17,17.15,17.15,0,0,1,18.72,5.22,18.79,18.79,0,0,1,1.42,22.31,17.5,17.5,0,0,1-18.12,7.86c-8.36-1.77-14.32-9.92-14.14-18.37C215.23,143.32,215.11,142.51,215.09,143.39Z" transform="translate(-157.59 -19.5)"/><ellipse class="cls-2" cx="231.98" cy="178.64" rx="17.55" ry="17.31" transform="translate(-111.11 385.66) rotate(-88.29)"/><path class="cls-3" d="M214.61,178c-.15,7.31,3.47,14.25,10.3,17.34a17.36,17.36,0,0,0,20.49-4.95,19.38,19.38,0,0,0,2.3-19.73,17.45,17.45,0,0,0-18.44-9.93c-8.53,1.37-14.32,8.86-14.65,17.27,0,.4.1,1.21.13.33a17.53,17.53,0,0,1,11.92-15.72,17.31,17.31,0,0,1,18,4.78,17.5,17.5,0,0,1,4.4,9.47,16.51,16.51,0,0,1-2.94,11.26,17.38,17.38,0,0,1-17.44,7.18c-7.9-1.52-14.14-8.84-14-17C214.75,177.88,214.63,177.07,214.61,178Z" transform="translate(-157.59 -19.5)"/><ellipse class="cls-2" cx="257.13" cy="187.45" rx="16.72" ry="15.44" transform="translate(-95.52 419.35) rotate(-88.29)"/><path class="cls-3" d="M241.63,186.82c-.13,6.69,2.8,13.39,9,16.47A14.92,14.92,0,0,0,269,198.72a19.43,19.43,0,0,0,2.2-18.89c-2.73-6.46-9.46-10.76-16.52-9.5-7.92,1.42-12.73,8.84-13,16.49,0,.4.1,1.21.13.33a16.64,16.64,0,0,1,10.57-14.94,14.78,14.78,0,0,1,16.06,4.38,16.54,16.54,0,0,1,1.33,19.84,15.16,15.16,0,0,1-15.56,6.82c-7.34-1.52-12.54-8.71-12.4-16.1C241.77,186.75,241.65,185.94,241.63,186.82Z" transform="translate(-157.59 -19.5)"/><ellipse class="cls-2" cx="274.75" cy="186.58" rx="18.16" ry="17.34" transform="translate(-77.56 436.11) rotate(-88.29)"/><path class="cls-3" d="M257.34,185.89c-.15,7.42,3.37,14.67,10.3,17.9a17.05,17.05,0,0,0,20.41-5,20.45,20.45,0,0,0,2.39-20.66A17.33,17.33,0,0,0,272,168c-8.67,1.49-14.27,9.37-14.61,17.85,0,.4.1,1.21.14.33a18.11,18.11,0,0,1,11.93-16.29,17,17,0,0,1,18.19,5,17.63,17.63,0,0,1,1.38,21.3,17.2,17.2,0,0,1-17.61,7.49,17.83,17.83,0,0,1-13.89-17.55C257.49,185.82,257.36,185,257.34,185.89Z" transform="translate(-157.59 -19.5)"/><ellipse class="cls-2" cx="317.32" cy="173.87" rx="17.55" ry="19.13" transform="matrix(0.03, -1, 1, 0.03, -23.55, 466.34)"/><path class="cls-3" d="M298.13,173.13a18.19,18.19,0,0,0,11.42,17.37c7.72,3.18,17.23,1.34,22.77-5a17.94,17.94,0,0,0,2.29-19.66c-3.8-7.32-12.35-11.06-20.37-9.9-8.79,1.27-15.75,8.24-16.11,17.23,0,.4.1,1.21.13.33.31-7.49,6.11-13.6,13.08-15.67a20.47,20.47,0,0,1,20.11,4.93,17,17,0,0,1,4.77,9.28,15.19,15.19,0,0,1-3.11,11.22c-4.43,5.91-12.19,8.53-19.37,7.24-8.1-1.44-15.65-8.33-15.48-17C298.27,173.06,298.15,172.25,298.13,173.13Z" transform="translate(-157.59 -19.5)"/><ellipse class="cls-2" cx="292.02" cy="173.4" rx="18.93" ry="14.86" transform="translate(-47.63 440.59) rotate(-88.29)"/><path class="cls-3" d="M277.09,172.79c-.15,7,2.22,14.79,8.62,18.49s13.75.64,17.62-5.18c4.05-6.1,4.71-14.61,2.22-21.44-2.36-6.5-8.48-12.13-15.83-10.55-8.35,1.81-12.33,10.92-12.63,18.68,0,.4.1,1.21.14.33.25-6.82,3.74-14.33,10.35-17.08,5.89-2.45,12.11.27,15.61,5.3a21.34,21.34,0,0,1,1,22.1c-3,5.4-8.78,9.45-15.12,7.93-7.88-1.88-12-10.76-11.82-18.25C277.24,172.72,277.11,171.91,277.09,172.79Z" transform="translate(-157.59 -19.5)"/><ellipse class="cls-2" cx="250.61" cy="154.08" rx="16.05" ry="17.71" transform="translate(-160.5 -14.67) rotate(-1.1)"/><path class="cls-3" d="M234.5,154.55c.2,7.1,3.91,14.13,10.76,16.83s14.6-.34,18.52-6.49a20.92,20.92,0,0,0,.79-20.12c-3.31-6.42-10.49-10.41-17.68-8.56-8.13,2.1-12.47,10.23-12.39,18.17,0,.71.14.73.14,0-.07-6.91,4-13.83,10.58-16.38a15.24,15.24,0,0,1,16.93,4.45,17.86,17.86,0,0,1,1.76,21,15.55,15.55,0,0,1-16,7.49c-7.77-1.51-13-9-13.24-16.67C234.61,153.35,234.49,154.14,234.5,154.55Z" transform="translate(-157.59 -19.5)"/><ellipse class="cls-2" cx="265.4" cy="140.3" rx="19.77" ry="17.48" transform="translate(-40.38 381.88) rotate(-88.29)"/><path class="cls-3" d="M247.86,139.61c-.17,7.75,3.12,15.76,10.33,19.39s15.89.91,20.63-5.52c4.58-6.22,5.38-15.18,2.44-22.27-3.06-7.34-10.54-12.56-18.65-11-9.14,1.74-14.42,10.66-14.75,19.42,0,.4.1,1.21.13.34.29-7.55,4.78-15.08,12-17.79a16.36,16.36,0,0,1,18.54,5.65,20.46,20.46,0,0,1,1.15,23.09c-3.71,6-10.7,9.74-17.79,8.18-8.58-1.89-14.11-10.65-13.93-19.13C248,139.55,247.88,138.74,247.86,139.61Z" transform="translate(-157.59 -19.5)"/><ellipse class="cls-2" cx="276.1" cy="167.22" rx="18.33" ry="17.78" transform="translate(-160.75 -14.18) rotate(-1.1)"/><path class="cls-3" d="M257.71,167.74A18.23,18.23,0,0,0,270,184.62a18.45,18.45,0,1,0,2-35.34,18.34,18.34,0,0,0-14.24,18.29c0,.7.14.72.13,0-.07-7.46,5.22-14.1,12.14-16.49a18.87,18.87,0,0,1,19.42,4.51,17.49,17.49,0,0,1,4.75,9.27,16.11,16.11,0,0,1-2.8,11.57,18.72,18.72,0,0,1-18.4,7.69c-8.14-1.36-14.87-8.32-15.11-16.72C257.82,166.53,257.7,167.33,257.71,167.74Z" transform="translate(-157.59 -19.5)"/><ellipse class="cls-2" cx="251.54" cy="114.65" rx="20.86" ry="19.87" transform="translate(-71.65 316.49) rotate(-77.7)"/><path class="cls-3" d="M232.1,109.87c-1.68,8,.6,16.79,7.13,22a19.47,19.47,0,0,0,24.24-.21c6.61-5.31,9.3-14.27,7.56-22.46-1.81-8.55-8.92-15.36-17.77-16-10.23-.72-19,6.91-21.16,16.62a3.27,3.27,0,0,0,.07,1.08,21.05,21.05,0,0,1,16.07-16.14,19.4,19.4,0,0,1,20.07,8.88,20.49,20.49,0,0,1-2.4,24.44,19.77,19.77,0,0,1-21,5.66A20.06,20.06,0,0,1,232.17,111,4,4,0,0,0,232.1,109.87Z" transform="translate(-157.59 -19.5)"/><ellipse class="cls-2" cx="264.67" cy="84.81" rx="19.28" ry="19.64" transform="translate(-32.17 305.84) rotate(-77.7)"/><path class="cls-3" d="M245.44,80.09a20.45,20.45,0,0,0,7.29,20.58A19.84,19.84,0,1,0,266,64.94a19.64,19.64,0,0,0-20.52,15.15,3.62,3.62,0,0,0,.07,1.08A19.45,19.45,0,0,1,261,66.45a20,20,0,0,1,20,8.33,17.88,17.88,0,0,1,3.17,12,18.86,18.86,0,0,1-5.06,10.61,19.92,19.92,0,0,1-20.56,5c-8.73-2.91-14.91-12-13-21.29A4,4,0,0,0,245.44,80.09Z" transform="translate(-157.59 -19.5)"/><ellipse class="cls-2" cx="273.22" cy="108.85" rx="18.8" ry="18.67" transform="translate(-48.93 333.11) rotate(-77.7)"/><path class="cls-3" d="M254.94,104.33c-1.53,7.38.76,15.29,6.81,20a18.79,18.79,0,0,0,22.9,0c6-4.71,8.48-12.76,6.84-20.15a18.68,18.68,0,0,0-36.55.17,4,4,0,0,0,.07,1.08A19,19,0,0,1,269.81,91a18.73,18.73,0,0,1,18.94,8,17.52,17.52,0,0,1,3,11.62,18.7,18.7,0,0,1-24.38,15.46c-8.49-2.81-14.17-11.8-12.32-20.67A4,4,0,0,0,254.94,104.33Z" transform="translate(-157.59 -19.5)"/><ellipse class="cls-2" cx="322.88" cy="153.17" rx="16.13" ry="18" transform="translate(2.52 451.82) rotate(-88.29)"/><path class="cls-3" d="M304.82,152.47a16.75,16.75,0,0,0,10.69,16c7.23,3,16.21,1.35,21.48-4.57a16.34,16.34,0,0,0,2.16-18.17c-3.63-6.82-11.73-10.17-19.2-9.11-8.16,1.15-14.78,7.46-15.13,15.85,0,.4.1,1.21.14.33.28-6.94,5.83-12.48,12.26-14.35a19.57,19.57,0,0,1,18.84,4.44,15.55,15.55,0,0,1,4.57,8.46,13.63,13.63,0,0,1-2.95,10.46c-4.21,5.43-11.5,7.73-18.16,6.57-7.44-1.31-14.72-7.52-14.56-15.58C305,152.4,304.84,151.59,304.82,152.47Z" transform="translate(-157.59 -19.5)"/><ellipse class="cls-2" cx="299.9" cy="155.6" rx="16.29" ry="18.07" transform="translate(-22.2 431.2) rotate(-88.29)"/><path class="cls-3" d="M281.77,154.89A16.9,16.9,0,0,0,292.5,171c7.27,3,16.28,1.35,21.56-4.62a16.56,16.56,0,0,0,2.17-18.34c-3.63-6.87-11.76-10.27-19.28-9.2-8.22,1.17-14.83,7.57-15.18,16,0,.4.1,1.21.13.33.29-7,5.83-12.6,12.32-14.5a19.56,19.56,0,0,1,18.91,4.49,15.71,15.71,0,0,1,4.59,8.53,13.87,13.87,0,0,1-3,10.58c-4.21,5.48-11.53,7.81-18.23,6.64-7.51-1.32-14.77-7.63-14.62-15.74C281.91,154.82,281.79,154,281.77,154.89Z" transform="translate(-157.59 -19.5)"/><ellipse class="cls-2" cx="331.92" cy="126.58" rx="17.81" ry="20.51" transform="translate(37.88 435.06) rotate(-88.29)"/><path class="cls-3" d="M311.35,125.8c-.16,8,4.85,14.72,12.26,17.63,8.14,3.19,18.27,1.54,24.32-5a17.48,17.48,0,0,0,2.47-20.11c-4.26-7.64-13.59-11.16-22-10-9,1.28-16.67,8.05-17,17.42,0,.4.1,1.21.13.33.32-7.82,6.77-13.85,13.95-15.88,7.42-2.09,16-.35,21.6,5a17,17,0,0,1,5.18,9.56,15,15,0,0,1-3.45,11.41c-4.86,6-13.19,8.48-20.69,7.18-8.31-1.44-16.76-8.19-16.59-17.29C311.49,125.73,311.37,124.92,311.35,125.8Z" transform="translate(-157.59 -19.5)"/><ellipse class="cls-2" cx="314.57" cy="129.76" rx="16.29" ry="16.82" transform="translate(17.86 420.81) rotate(-88.29)"/><path class="cls-3" d="M297.69,129.09a16.88,16.88,0,0,0,9.88,16.11A17,17,0,1,0,311.91,113a16.77,16.77,0,0,0-14.22,16c0,.41.09,1.21.13.34a16.34,16.34,0,0,1,11.44-14.52,17.35,17.35,0,0,1,17.66,4.44,16,16,0,0,1,4.27,8.7,14.7,14.7,0,0,1-2.82,10.44,17.19,17.19,0,0,1-16.91,6.66c-7.41-1.35-13.79-8-13.64-15.72C297.83,129,297.7,128.22,297.69,129.09Z" transform="translate(-157.59 -19.5)"/><ellipse class="cls-2" cx="284.38" cy="137.5" rx="19.77" ry="17.48" transform="translate(-19.16 398.14) rotate(-88.29)"/><path class="cls-3" d="M266.85,136.82c-.17,7.74,3.11,15.75,10.33,19.38s15.88.91,20.62-5.52c4.58-6.22,5.39-15.18,2.44-22.27-3.05-7.34-10.53-12.56-18.64-11-9.14,1.74-14.42,10.67-14.75,19.43,0,.4.1,1.21.13.33.29-7.55,4.78-15.08,12-17.79A16.35,16.35,0,0,1,297.54,125a20.44,20.44,0,0,1,1.16,23.08c-3.71,6-10.71,9.74-17.8,8.18-8.58-1.89-14.1-10.64-13.92-19.13C267,136.75,266.87,135.94,266.85,136.82Z" transform="translate(-157.59 -19.5)"/><ellipse class="cls-2" cx="290.78" cy="96.19" rx="19.28" ry="16.62" transform="matrix(0.21, -0.98, 0.98, 0.21, -22.73, 340.3)"/><path class="cls-3" d="M274.51,92.11c-1.48,7-.08,15.14,5.49,20.11,6,5.33,14.71,4.62,20.53-.54s8-13.26,6.76-20.72-6.8-14.1-14.67-14.55c-9.18-.52-16.21,7.33-18.11,15.7a3.23,3.23,0,0,0,.07,1.07c1.57-6.91,6.5-13.3,13.59-15.09a15.17,15.17,0,0,1,16.74,7.45c4.09,7.07,3,16.11-2.05,22.43-4.18,5.27-11.18,8.23-17.76,6-8.42-2.86-12.25-12.52-10.52-20.78A3.91,3.91,0,0,0,274.51,92.11Z" transform="translate(-157.59 -19.5)"/></g><g id="Calque_15" data-name="Calque 15"><path class="cls-2" d="M470.1,78.09c5.88-.77,11.78-1.35,17.66-2.11,4.77-.6,6.93-.91,10.08-.6a32.92,32.92,0,0,1,13.4,4.68,48.42,48.42,0,0,1,17.62,17.61,49.72,49.72,0,0,1,6.5,19.53c1.28,11.32-1.79,19.86-4.94,28.65-2,5.45-5.37,11.28-12.2,23-2.69,4.59-5,8.24-9.41,11.27a26.63,26.63,0,0,1-10.25,4.21c-6.45,1.09-7.77-1.36-14.41-.67-6.41.66-6.6,3.09-12.67,3.89-7,.92-12.68-1.52-15.87-2.88-6.19-2.66-9.62-6.1-16.48-13a118,118,0,0,1-14.67-18c-5-7.52-7.51-11.29-9.17-16.83-3.66-12.16-.81-22.71.38-26.91,1.37-4.86,3.59-12.35,10.26-19.14a40.09,40.09,0,0,1,15.57-9.62C449.63,78.27,450.16,80.69,470.1,78.09Z" transform="translate(-157.59 -19.5)"/><path class="cls-1" d="M470.1,78.09a3,3,0,0,0-.82,0l-2.37.22c-2.08.18-5.16.49-9.12.67-2,.1-4.18.14-6.61.17a27.08,27.08,0,0,0-7.88,1,47,47,0,0,0-8.46,3.41,38.53,38.53,0,0,0-8.35,6,37.39,37.39,0,0,0-6.95,8.89,50.53,50.53,0,0,0-4.47,11.36,53.71,53.71,0,0,0-2.19,12.89,44,44,0,0,0,1.59,13.8,34.35,34.35,0,0,0,2.65,6.76c1.12,2.18,2.43,4.26,3.77,6.33,2.68,4.13,5.46,8.37,8.67,12.4a123,123,0,0,0,10.49,11.65c1.88,1.87,3.76,3.76,5.79,5.56a35.74,35.74,0,0,0,6.7,4.79,43,43,0,0,0,4,1.84,40.17,40.17,0,0,0,4.16,1.49,27,27,0,0,0,8.93,1.12,19.37,19.37,0,0,0,8.83-2.44,17.93,17.93,0,0,1,8.45-1.74,22.32,22.32,0,0,1,4.39.58,19.4,19.4,0,0,0,4.72.47,24.85,24.85,0,0,0,9.14-2.31,25.53,25.53,0,0,0,7.76-5.39,39.08,39.08,0,0,0,5.47-7.61c3.09-5.32,6.23-10.58,9.1-16a62.73,62.73,0,0,0,3.74-8.33c1-2.83,2-5.65,2.84-8.51a48.78,48.78,0,0,0-1.58-33.62,49.56,49.56,0,0,0-18.91-22.7,39.37,39.37,0,0,0-11.62-5.23,28.29,28.29,0,0,0-5.7-.79,32.55,32.55,0,0,0-5.25.34l-15.37,2-4.11.56-1.06.16a1.5,1.5,0,0,0-.35.08,1.56,1.56,0,0,0,.38,0l1.1-.09,4.25-.42c3.7-.4,9.09-1,15.81-1.75a29.63,29.63,0,0,1,5.28-.16,27.65,27.65,0,0,1,5.66,1A41.22,41.22,0,0,1,514,82.15a49.27,49.27,0,0,1,21.13,39.43,52.34,52.34,0,0,1-2.82,17c-.9,2.79-1.91,5.63-3,8.39a73.94,73.94,0,0,1-3.93,8.06c-2.92,5.27-6,10.54-9.15,15.75a30.2,30.2,0,0,1-5.56,7,25.45,25.45,0,0,1-7.57,4.53,21.15,21.15,0,0,1-8.54,1.56,34.68,34.68,0,0,1-4.35-.69,20.14,20.14,0,0,0-4.59-.36,23.28,23.28,0,0,0-4.54.62,20,20,0,0,0-4.21,1.68,16,16,0,0,1-3.92,1.41,22.16,22.16,0,0,1-4.14.47c-5.57.13-10.88-1.9-15.6-4.31s-8.4-6.39-12.16-10.08a124,124,0,0,1-10.39-11.51c-3.18-4-5.93-8.15-8.63-12.27s-5.1-8.21-6.28-12.7a42.72,42.72,0,0,1-1.61-13.37,51.87,51.87,0,0,1,2.08-12.61A49.84,49.84,0,0,1,420.54,99a36.31,36.31,0,0,1,6.67-8.68A40.73,40.73,0,0,1,443.54,81a26.43,26.43,0,0,1,7.66-1.09c2.42-.08,4.64-.15,6.62-.3,4-.27,7.05-.68,9.12-1l2.36-.36A4.08,4.08,0,0,0,470.1,78.09Z" transform="translate(-157.59 -19.5)"/><path class="cls-2" d="M475.81,88.46a49.53,49.53,0,0,1-3.55-9.73c-.75-3.65-.49-5.5-2-6.93l-7.2-.34c-.9,1.23.81,3.17,3.33,8a77,77,0,0,1,4.07,9.07" transform="translate(-157.59 -19.5)"/><path class="cls-1" d="M470.44,88.5c.15-.06-.38-2.07-1.66-5.16-.64-1.55-1.47-3.37-2.51-5.33-.52-1-1.09-2-1.67-3-.29-.52-.58-1-.83-1.57a5.57,5.57,0,0,1-.28-.77,1.17,1.17,0,0,1-.06-.35c0-.09,0-.22,0-.18l3.28.14,2.15.09,1.08,0c.07,0,0,0,.05,0a3.17,3.17,0,0,1,.29.35c.7,1,.8,2.45,1,3.81a30.38,30.38,0,0,0,.86,3.94,43.16,43.16,0,0,0,2.29,5.85,8.13,8.13,0,0,0,1.23,2.16c.18-.08-1.45-3.56-2.72-8.43a33.46,33.46,0,0,1-.67-3.89c-.09-.69-.17-1.39-.31-2.12a5.23,5.23,0,0,0-.92-2.17,5.51,5.51,0,0,0-.5-.57s-.06-.07-.1-.08h-.12l-.26,0h-.3l-1.07-.07-2.1-.12-2.05-.11-1,0h-.38a2.44,2.44,0,0,0-.47,0c-.09,0-.11.08-.15.14l-.12.2a3.12,3.12,0,0,0-.18.42,1,1,0,0,0-.1.41,1.87,1.87,0,0,0,0,.33,2.59,2.59,0,0,0,.1.59,6.64,6.64,0,0,0,.36,1c.28.59.59,1.13.89,1.65l1.73,3c1.08,1.9,2,3.65,2.72,5.13C469.45,86.67,470.27,88.56,470.44,88.5Z" transform="translate(-157.59 -19.5)"/><path class="cls-1" d="M457.21,87.68c0,.15,1.6.67,4.34,1.14,1.38.23,3,.41,4.84.59a47.58,47.58,0,0,0,6,.21,28.82,28.82,0,0,0,7-1.12,24.87,24.87,0,0,0,10.36-6.17,6.44,6.44,0,0,0,1.33-1.58c-.13-.14-2.33,2.2-5.94,4.26a26.17,26.17,0,0,1-6.2,2.55,30.46,30.46,0,0,1-6.62,1,58.69,58.69,0,0,1-5.87-.13c-1.81-.11-3.44-.21-4.8-.34C458.93,87.78,457.24,87.53,457.21,87.68Z" transform="translate(-157.59 -19.5)"/><path class="cls-2" d="M365.59,93.93c-6.58-.08-13.17,0-19.75,0-5.34-.05-7.76-.11-11.19.66a36.37,36.37,0,0,0-14.15,6.91,53.73,53.73,0,0,0-17.12,21.72,55.54,55.54,0,0,0-4.61,22.38c.09,12.65,4.59,21.67,9.22,30.94,2.87,5.75,7.4,11.73,16.46,23.7,3.56,4.7,6.56,8.43,11.84,11.19a29.59,29.59,0,0,0,11.85,3.29c7.26.36,8.39-2.52,15.8-2.63,7.15-.11,7.68,2.55,14.48,2.63,7.83.09,13.78-3.34,17.12-5.27,6.47-3.73,9.8-8,16.45-16.45a130.26,130.26,0,0,0,13.83-21.73c4.53-8.94,6.79-13.42,7.9-19.74,2.43-13.89-2.09-25.15-4-29.63-2.16-5.17-5.58-13.14-13.83-19.74a44.35,44.35,0,0,0-18.43-8.56C388.18,91.45,387.9,94.18,365.59,93.93Z" transform="translate(-157.59 -19.5)"/><path class="cls-1" d="M365.59,93.93a3.47,3.47,0,0,0,.9.09l2.64.09c2.33,0,5.76.07,10.18-.15,2.21-.1,4.67-.3,7.34-.54a29.38,29.38,0,0,1,8.59.2,52,52,0,0,1,9.55,2.71,41.73,41.73,0,0,1,9.67,5.42,40.15,40.15,0,0,1,8.49,8.7,55.19,55.19,0,0,1,6.19,11.72,57.82,57.82,0,0,1,3.94,13.62,47.45,47.45,0,0,1,0,15,36.45,36.45,0,0,1-2,7.5c-.92,2.46-2.08,4.89-3.28,7.33-2.43,4.89-4.91,9.85-7.89,14.64a138.28,138.28,0,0,1-10,14.06c-3.66,4.56-7.25,9.35-12.08,12.71-5.12,3.43-11,6.46-17.38,6.85a22.17,22.17,0,0,1-4.75-.14,22.82,22.82,0,0,1-4.65-1.3,18.31,18.31,0,0,0-5.1-1.06,25.25,25.25,0,0,0-5.21.19,26.87,26.87,0,0,0-5,1.28,19.77,19.77,0,0,1-4.77,1.07,26,26,0,0,1-9.76-1.26,26.78,26.78,0,0,1-8.75-4.63,41.9,41.9,0,0,1-6.78-7.39c-4.11-5.44-8.28-10.82-12.12-16.31a68,68,0,0,1-5.13-8.5c-1.49-3-3-5.92-4.23-8.91a54.76,54.76,0,0,1-4.64-18.38,54.49,54.49,0,0,1,19.21-44.93,43,43,0,0,1,11.76-7.21,31.25,31.25,0,0,1,6-1.62,38.39,38.39,0,0,1,5.68-.37c7.32,0,13.18-.07,17.19-.11l4.6-.08,1.19,0a1.2,1.2,0,0,0,.41,0,1.69,1.69,0,0,0-.42,0l-1.23,0-4.74-.09-17.66-.19A29.72,29.72,0,0,0,329.4,96a46.39,46.39,0,0,0-12.14,7.68,55.45,55.45,0,0,0-18.79,46.88,59.07,59.07,0,0,0,5.32,18.77c1.36,3,2.81,6,4.36,9a83.14,83.14,0,0,0,5.43,8.53c3.92,5.5,8,10.87,12.12,16.28a34.66,34.66,0,0,0,7.34,7.27,29.5,29.5,0,0,0,9.41,4.25,24.91,24.91,0,0,0,10.28.66,37.16,37.16,0,0,0,4.89-1.36,20.52,20.52,0,0,1,4.68-.92,23.41,23.41,0,0,1,4.74.09,21.09,21.09,0,0,1,4.54,1.22,18.83,18.83,0,0,0,4.89,1.14,26.29,26.29,0,0,0,4.94,0,30.36,30.36,0,0,0,9.29-2.51,43.22,43.22,0,0,0,4.19-2.12,44.56,44.56,0,0,0,3.94-2.45,38.48,38.48,0,0,0,6.75-6.16c2-2.24,3.84-4.58,5.66-6.88a136.35,136.35,0,0,0,10-14.22q2.24-3.66,4.19-7.39c1.3-2.49,2.53-4.95,3.74-7.41s2.37-4.93,3.32-7.48a37.19,37.19,0,0,0,2-7.8,48.6,48.6,0,0,0-.05-15.42,59.16,59.16,0,0,0-4.11-13.92A56.23,56.23,0,0,0,424,109.71a40.93,40.93,0,0,0-8.83-8.89,42.45,42.45,0,0,0-10-5.46,51.84,51.84,0,0,0-9.78-2.65,30.05,30.05,0,0,0-8.82-.07c-2.68.28-5.11.53-7.31.68-4.39.32-7.82.38-10.14.45l-2.64.08A3.27,3.27,0,0,0,365.59,93.93Z" transform="translate(-157.59 -19.5)"/><path class="cls-2" d="M360.65,106.11a54,54,0,0,0,2.63-11.19c.35-4.12-.17-6.13,1.32-7.9l7.9-1.32c1.15,1.24-.48,3.6-2.63,9.22a89,89,0,0,0-3.3,10.53" transform="translate(-157.59 -19.5)"/><path class="cls-1" d="M366.57,105.45c.18,0,.83-2.16,2-5.63.62-1.73,1.38-3.78,2.32-6l1.5-3.52c.26-.62.53-1.25.76-1.94a6,6,0,0,0,.27-1.11,2.57,2.57,0,0,0-.13-1.37,1.63,1.63,0,0,0-.3-.48l-.16-.22-.08-.11h-.13a5.52,5.52,0,0,0-.55.07l-.34.06-1.13.19-2.3.39-2.35.4-1.19.2-.52.09c-.12.13-.27.34-.34.43a5.05,5.05,0,0,0-.36.58,6.27,6.27,0,0,0-.64,2.53c-.06.82-.06,1.6-.08,2.36a32.66,32.66,0,0,1-.31,4.33c-.85,5.44-2.21,9.32-2,9.37a9.91,9.91,0,0,0,1.1-2.6,45.75,45.75,0,0,0,1.83-6.83,35,35,0,0,0,.45-4.47c.09-1.53,0-3.16.78-4.31a1.79,1.79,0,0,1,.22-.31s0,0,0,0l.28-.05,1.17-.18,2.31-.36,2.25-.36,1.09-.18.17,0s0,0,0,0A2.79,2.79,0,0,1,372,88c-.2.62-.46,1.24-.71,1.85-.5,1.22-1,2.41-1.44,3.56-.89,2.29-1.58,4.4-2.09,6.18C366.76,103.13,366.42,105.41,366.57,105.45Z" transform="translate(-157.59 -19.5)"/><path class="cls-1" d="M381.06,102.81c-.06-.17-1.89.34-4.86,1-1.48.32-3.27.64-5.26,1s-4.15.72-6.45.91a32.53,32.53,0,0,1-7.6-.25,28.46,28.46,0,0,1-7.08-2.11c-4.15-1.85-6.73-4.09-6.85-3.92a7.12,7.12,0,0,0,1.69,1.62,26.74,26.74,0,0,0,12.24,5.56,30.68,30.68,0,0,0,7.7.33,53.12,53.12,0,0,0,6.57-1c2-.43,3.77-.85,5.25-1.29C379.37,103.76,381.11,103,381.06,102.81Z" transform="translate(-157.59 -19.5)"/></g><g id="Calque_14" data-name="Calque 14"><path class="cls-2" d="M591.09,76.26a29.58,29.58,0,0,1,11.42-9.74A31.6,31.6,0,0,1,620.25,64a42.3,42.3,0,0,1,13.84,4.3c4.35,2.18,5.7,3.8,10.48,5.3,4.4,1.38,6.91,2.15,6.91,2.15s-8.14,6-13.2,8.17a65.27,65.27,0,0,1-10,3.84,48.4,48.4,0,0,1-23,.33" transform="translate(-157.59 -19.5)"/><path class="cls-1" d="M605.3,88c0,.13,1.28.59,3.73,1.08a45.71,45.71,0,0,0,10.57.76A43.38,43.38,0,0,0,635,86.37c1.37-.57,2.73-1.14,4.16-1.78a45.19,45.19,0,0,0,4.23-2.25c1.39-.82,2.78-1.7,4.16-2.61l2.08-1.4,1.31-.91,2-1.46.53-.39.27-.19s.06,0,0,0l-.08,0-.15,0-1.25-.4-2.54-.8-2.62-.81a42.41,42.41,0,0,1-5.16-1.8,54.09,54.09,0,0,1-4.89-2.74,47.56,47.56,0,0,0-5.25-2.62,41.18,41.18,0,0,0-11.14-3,34.89,34.89,0,0,0-10.78.22A29.23,29.23,0,0,0,601,66.46a28.84,28.84,0,0,0-6,4.45,26,26,0,0,0-3.21,3.71c-.65.93-.94,1.48-.88,1.52s1.59-2,4.78-4.75a29.87,29.87,0,0,1,6.16-4,29.38,29.38,0,0,1,8.77-2.68,35,35,0,0,1,10.39.21,41,41,0,0,1,10.53,3.21,49.07,49.07,0,0,1,4.92,2.6,40.7,40.7,0,0,0,5,2.8,27.1,27.1,0,0,0,2.67,1l2.58.81,2.44.77h0l-.24.16-.51.36-2,1.38c-1.35.91-2.71,1.78-4.05,2.59s-2.69,1.57-4,2.2-2.75,1.23-4.08,1.81a44.42,44.42,0,0,1-14.7,3.82,57.87,57.87,0,0,1-10.35-.09C606.7,88.08,605.34,87.88,605.3,88Z" transform="translate(-157.59 -19.5)"/><path class="cls-1" d="M591.55,77.07c.06.15,2.07-.68,5.4-1.75a73.72,73.72,0,0,1,13.27-3,57.3,57.3,0,0,1,8.81-.57,52.21,52.21,0,0,1,8.54.85,57.07,57.07,0,0,1,6.33,1.55,18.71,18.71,0,0,0,2.5.71A10.42,10.42,0,0,0,634,73.78a44.41,44.41,0,0,0-6.44-1.9,48.63,48.63,0,0,0-8.68-1,52.39,52.39,0,0,0-8.76.5,58.5,58.5,0,0,0-13.38,3.29C593.4,75.88,591.49,77,591.55,77.07Z" transform="translate(-157.59 -19.5)"/><path class="cls-2" d="M622.71,116.33c1.16,2.47,3,6.19,5.53,10.56,5.24,9,7.13,9.94,10,15.33a48.78,48.78,0,0,1,5.33,23.06,51.62,51.62,0,0,1-4.06,18.54,66.65,66.65,0,0,1-9.17,16.3A80.92,80.92,0,0,1,620,211.48c-4.92,4.61-9.21,8.63-16.08,11.65-3.94,1.72-7.1,3.12-11.51,3.08-5.23,0-10.69-2.08-14.34-3.44-2.84-1.06-4.1-1.76-6.78-2.16-3.57-.53-4.92.19-7.52-.45a13.14,13.14,0,0,1-6.91-4.65" transform="translate(-157.59 -19.5)"/><path class="cls-1" d="M556.89,215.51s.22.5.88,1.26a13,13,0,0,0,3.41,2.82,11,11,0,0,0,3,1.17,16.56,16.56,0,0,0,3.83.23,18.9,18.9,0,0,1,4.12.44,26.07,26.07,0,0,1,4.42,1.55,67.09,67.09,0,0,0,10.59,3.49,25.44,25.44,0,0,0,6.32.63,21.4,21.4,0,0,0,6.63-1.35c2.16-.81,4.23-1.69,6.4-2.75a42.48,42.48,0,0,0,6.21-3.84,72.62,72.62,0,0,0,5.74-4.83c1.85-1.71,3.72-3.43,5.56-5.29a82.16,82.16,0,0,0,10.55-13.32,65,65,0,0,0,4.22-7.75A83,83,0,0,0,642,179.7a47.69,47.69,0,0,0,2.41-17.3A49.72,49.72,0,0,0,641,146.46a44.92,44.92,0,0,0-3.31-6.7c-1.26-2.06-2.68-3.83-3.91-5.54a107.34,107.34,0,0,1-6-9.3c-1.57-2.69-2.75-4.88-3.57-6.39a14,14,0,0,0-1.33-2.29,13.19,13.19,0,0,0,1,2.55c.72,1.62,1.82,3.94,3.34,6.77a95.76,95.76,0,0,0,5.94,9.77A64.53,64.53,0,0,1,636.9,141a43.49,43.49,0,0,1,3,6.69,49.1,49.1,0,0,1,2.81,15.65,47.42,47.42,0,0,1-2.8,16.56,80.61,80.61,0,0,1-3.22,7.9,63.54,63.54,0,0,1-4.14,7.31,81.4,81.4,0,0,1-10,12.48c-1.77,1.8-3.65,3.53-5.47,5.23a72.68,72.68,0,0,1-5.56,4.71,40.52,40.52,0,0,1-5.89,3.71c-2,1-4.15,1.94-6.15,2.72a19.83,19.83,0,0,1-6.06,1.32,24.43,24.43,0,0,1-5.89-.49,68.54,68.54,0,0,1-10.4-3.17,26.31,26.31,0,0,0-4.7-1.48,19.33,19.33,0,0,0-4.41-.3,17.15,17.15,0,0,1-3.61,0,10.44,10.44,0,0,1-2.86-.92,15.57,15.57,0,0,1-3.49-2.39C557.33,215.82,557,215.46,556.89,215.51Z" transform="translate(-157.59 -19.5)"/><path class="cls-2" d="M581.91,215.91a34.45,34.45,0,0,1-8.93,4.62c-1.62.55-11.37,3.74-21.65.26-9-3-13.57-9.58-20.13-19-9.49-13.6-11.75-25.75-12.33-29.38-.79-4.94-1.51-9.81,0-15.83,1.48-5.75,4.29-9.73,8.39-15.43,4.71-6.55,5.65-6.27,11-13.06,4.29-5.43,9.28-11.75,13.12-20.67,3.71-8.62,2.11-9.84,5.85-16.13,2.44-4.11,6.15-10.35,13.5-13.18s15.14-.91,18.33-.1c2,.51,6.77,2.16,6.77,2.16a41.78,41.78,0,0,1,13.6,5.14c6.61,4.24,5.95,6.29,10,17,3,7.92,3.15,11.82,3.16,13.17a30.1,30.1,0,0,1-1.94,10.93" transform="translate(-157.59 -19.5)"/><path class="cls-1" d="M620.72,126.43a8.16,8.16,0,0,0,1-2.29,27.78,27.78,0,0,0,1.35-7,30.28,30.28,0,0,0-1.67-11.21c-.64-2.12-1.49-4.32-2.3-6.65s-1.55-4.83-2.64-7.45A13.4,13.4,0,0,0,614.07,88a19.08,19.08,0,0,0-3.52-2.94A35.4,35.4,0,0,0,602,80.9a48.62,48.62,0,0,0-4.85-1.37l-.63-.14-.32-.06-.17,0-1.23-.39-2.47-.8a42.28,42.28,0,0,0-10.55-2.34,25.85,25.85,0,0,0-11.43,1.5,23.49,23.49,0,0,0-9.65,7.21,44.45,44.45,0,0,0-3.5,5,32.22,32.22,0,0,0-2.88,5.58c-.77,2-1.11,4.11-1.68,6a46.71,46.71,0,0,1-2.07,5.76,70.37,70.37,0,0,1-6.38,11.66c-2.53,3.75-5.42,7.42-8.36,11-1.48,1.8-3.06,3.48-4.7,5.24a62.59,62.59,0,0,0-4.53,5.65c-2.75,3.87-5.7,7.8-7.49,12.43a30.57,30.57,0,0,0-1.85,14.41c.24,2.4.61,4.68,1,7a63.26,63.26,0,0,0,1.74,6.8,79.66,79.66,0,0,0,12.14,23.48,83.69,83.69,0,0,0,7.52,9.49,28.28,28.28,0,0,0,9.14,6.48,30.77,30.77,0,0,0,9.7,2.35,36.8,36.8,0,0,0,8.54-.38,33.16,33.16,0,0,0,11.43-4,29.66,29.66,0,0,0,2.73-1.77,4.59,4.59,0,0,0,.86-.72c-.06-.08-1.34.86-3.91,2.18a34.36,34.36,0,0,1-11.68,3.55,35.59,35.59,0,0,1-8.53.05,29.07,29.07,0,0,1-9.44-2.7,28.27,28.27,0,0,1-8.59-6.75,97.17,97.17,0,0,1-7.26-9.65,87.39,87.39,0,0,1-6.6-11,74.07,74.07,0,0,1-4.81-12.49,60.07,60.07,0,0,1-1.48-6.67c-.35-2.29-.7-4.58-.82-6.87a28.26,28.26,0,0,1,2.44-13.35c1.88-4.17,4.78-7.93,7.51-11.71a54.53,54.53,0,0,1,4.43-5.28c1.6-1.67,3.19-3.43,4.65-5.23,2.9-3.6,5.72-7.16,8.21-10.91a72.21,72.21,0,0,0,6.28-11.54,47.92,47.92,0,0,0,2.15-6c.6-2.05.93-4.08,1.62-5.88a31.27,31.27,0,0,1,2.7-5.23,41.87,41.87,0,0,1,3.32-4.82A21.59,21.59,0,0,1,571,79.1a23.93,23.93,0,0,1,10.56-1.43,40.83,40.83,0,0,1,10.19,2.17l2.43.76,1.2.38a4.38,4.38,0,0,0,.43.11l.3.06.6.12a44.55,44.55,0,0,1,4.67,1.27,33.34,33.34,0,0,1,8.25,3.88,17.83,17.83,0,0,1,3.29,2.65,11.75,11.75,0,0,1,2.14,3.34c1.07,2.44,1.87,5,2.75,7.3s1.75,4.5,2.43,6.55a30.28,30.28,0,0,1,2,10.82,31.87,31.87,0,0,1-.94,7A16.88,16.88,0,0,0,620.72,126.43Z" transform="translate(-157.59 -19.5)"/><path class="cls-2" d="M586.46,86.5c.23-3.68.54-7,.89-10C588,71,588.67,67,589.21,63.86c0-.18.52-3,1.33-6.74,0,0,.56-2.64,2.11-7.6.93-3,1.4-4.12,2.28-4.29.33-.06.66,0,2.58,1.54a49.8,49.8,0,0,1,4.37,3.94c1.48,1.47,1.77,1.84,1.79,2.41s-.29,1.11-1.54,2.58a27.52,27.52,0,0,1-2.37,2.62c-3.22,3-4.85,14.84-5,16.09-.65,4.87-1.13,9.41-1.5,13.62" transform="translate(-157.59 -19.5)"/><path class="cls-1" d="M593.25,88a11.37,11.37,0,0,0,.64-3c.3-1.93.69-4.73,1.14-8.19.22-1.74.47-3.62.87-5.63s.86-4.13,1.5-6.31a28.14,28.14,0,0,1,1.16-3.26,8.14,8.14,0,0,1,1.81-2.84c1-.94,1.76-1.93,2.63-2.93a8.64,8.64,0,0,0,1.24-1.78,2.18,2.18,0,0,0,.2-.71,2.35,2.35,0,0,0-.06-.78,3,3,0,0,0-.69-1.14,57.27,57.27,0,0,0-4.18-4c-.75-.66-1.53-1.28-2.34-1.89a8.92,8.92,0,0,0-1.38-.9,1.77,1.77,0,0,0-.63-.17,1.62,1.62,0,0,0-.68.11,2.15,2.15,0,0,0-.91.7,6.22,6.22,0,0,0-.8,1.52c-.19.5-.35,1-.51,1.47l-.89,2.89c-.28,1-.55,1.94-.81,2.9l-.38,1.46-.17.72-.09.37,0,.18,0,.1a.83.83,0,0,0,0,.28l0-.19a176.49,176.49,0,0,0-3.1,20.61c-.2,2.72-.34,5-.42,6.49a9.82,9.82,0,0,0,0,2.42,11.55,11.55,0,0,0,.43-2.41c.21-1.55.48-3.77.78-6.48.65-5.41,2-12.72,3.63-20.34l-.58-.14c1,0,.43,0,.6,0v.05l0-.09,0-.18.09-.36.19-.72.4-1.44c.28-1,.57-1.93.85-2.9l.93-2.87c.15-.47.32-.94.5-1.38a4.19,4.19,0,0,1,.6-1.09A.56.56,0,0,1,595,46c.05,0,0,0,.19.08a9.56,9.56,0,0,1,1.12.78c.77.59,1.52,1.19,2.22,1.82,1.39,1.25,2.79,2.6,3.94,3.84.44.51.43.6.31,1a8.36,8.36,0,0,1-1,1.42c-.83,1-1.64,2-2.48,2.8a9.61,9.61,0,0,0-2.13,3.37A29.25,29.25,0,0,0,596,64.51,61.81,61.81,0,0,0,594.63,71c-.36,2-.55,4-.69,5.71-.31,3.49-.54,6.32-.66,8.27A11.38,11.38,0,0,0,593.25,88Z" transform="translate(-157.59 -19.5)"/><path class="cls-1" d="M583.45,81.65c-.05-.09-.35-.06-.83.16a2.84,2.84,0,0,0-.82.59,1.87,1.87,0,0,0-.38.64,1.69,1.69,0,0,0,0,.92,3,3,0,0,0,1.07,1.41,9.59,9.59,0,0,0,1.51.94,24.78,24.78,0,0,0,3.62,1.38,17.84,17.84,0,0,0,5.9,1.06,7.48,7.48,0,0,0,2.92-.73,5.5,5.5,0,0,0,1.2-.73,1.78,1.78,0,0,0,.73-1.37,1.69,1.69,0,0,0-.73-1.2,3.22,3.22,0,0,0-.76-.41c-.44-.16-.7-.18-.73-.11s.18.22.52.49a4.31,4.31,0,0,1,.56.52,1,1,0,0,1,.31.71c0,.43-.81.83-1.57,1.08a7,7,0,0,1-2.55.4,21.25,21.25,0,0,1-5.34-1.2c-1.26-.39-2.45-.78-3.47-1.2a4.64,4.64,0,0,1-2.14-1.4c-.28-.37.21-1,.52-1.3S583.5,81.75,583.45,81.65Z" transform="translate(-157.59 -19.5)"/><path class="cls-2" d="M537.05,163.9c-1.64-2-4.08-5.19-6.78-9.22-5.59-8.33-5.59-10.35-9.06-15.05a47.07,47.07,0,0,0-17.68-14.33A49.75,49.75,0,0,0,485.8,121a64.06,64.06,0,0,0-17.95,1.06,76.05,76.05,0,0,0-14.13,4.08c-6.06,2.31-11.33,4.33-16.83,9-3.15,2.67-5.69,4.82-7.51,8.65-2.17,4.53-2.71,10.11-3.07,13.84-.28,2.89-.21,4.28-1,6.76-1.05,3.3-2.24,4.17-2.78,6.69a12.6,12.6,0,0,0,1.11,7.92" transform="translate(-157.59 -19.5)"/><path class="cls-1" d="M423.65,179a5.19,5.19,0,0,0-.34-1.42,14.59,14.59,0,0,1-.6-4,9.91,9.91,0,0,1,.41-2.85,15.71,15.71,0,0,1,1.49-3.14,19.29,19.29,0,0,0,1.59-3.94,25.38,25.38,0,0,0,.7-4.68,66.07,66.07,0,0,1,1.64-10.32,23.26,23.26,0,0,1,2.06-5.3,18.85,18.85,0,0,1,3.69-4.67c1.52-1.41,3.22-2.86,4.94-4.17a38,38,0,0,1,5.69-3.53,66.68,66.68,0,0,1,6.41-2.82c2.24-.86,4.52-1.76,6.82-2.53a78.21,78.21,0,0,1,15.54-3.44,60.53,60.53,0,0,1,8.21-.4,79.2,79.2,0,0,1,8.27.66,44.59,44.59,0,0,1,15.37,4.89,46.73,46.73,0,0,1,12,9.17,42.31,42.31,0,0,1,4.31,5.4c1.22,1.84,2.17,3.76,3.18,5.56a94.17,94.17,0,0,0,5.81,9.08c1.77,2.45,3.26,4.34,4.32,5.62A11.63,11.63,0,0,0,536.9,164a15,15,0,0,0-1.46-2.19c-1-1.39-2.41-3.4-4.1-6a102.8,102.8,0,0,1-5.55-9.39,63.39,63.39,0,0,0-3.21-5.79,41.71,41.71,0,0,0-4.49-5.68,47.61,47.61,0,0,0-12.52-9.54,46.3,46.3,0,0,0-16-5,75.68,75.68,0,0,0-8.39-.65,61.84,61.84,0,0,0-8.31.44,78.93,78.93,0,0,0-15.4,3.42c-2.38.81-4.65,1.7-6.9,2.58a66.17,66.17,0,0,0-6.59,2.92,41.19,41.19,0,0,0-5.94,3.75c-1.82,1.43-3.46,2.84-5.06,4.37a20.63,20.63,0,0,0-4,5.16,24.87,24.87,0,0,0-2.12,5.72,64.05,64.05,0,0,0-1.44,10.63,25,25,0,0,1-.52,4.47,18.42,18.42,0,0,1-1.36,3.75,16.44,16.44,0,0,0-1.41,3.4,10.5,10.5,0,0,0-.27,3.12,12.49,12.49,0,0,0,1,4.14C423.31,178.6,423.6,179,423.65,179Z" transform="translate(-157.59 -19.5)"/><path class="cls-2" d="M433.84,157.21a33.05,33.05,0,0,0-7.75,5.78c-1.16,1.17-8,8.25-9.35,18.6-1.16,9.07,2.57,15.76,7.93,25.38a69,69,0,0,0,20.19,23c3.94,2.76,7.84,5.44,13.7,6.64,5.58,1.15,10.21.4,16.86-.75,7.63-1.31,7.79-2.23,15.91-4,6.5-1.42,14.07-3.07,23.38-2.63,9,.42,9.4,2.32,16.4,1.74,4.59-.38,11.54-1,17.08-6.11s7.16-12.71,7.8-15.8c.4-1.93,1-6.76,1-6.76a40.14,40.14,0,0,0,1.28-13.92c-.87-7.49-2.92-7.79-10.46-15.82-5.58-5.94-8.89-7.7-10-8.28a28.87,28.87,0,0,0-10.26-2.92" transform="translate(-157.59 -19.5)"/><path class="cls-1" d="M527.49,161.37a17.74,17.74,0,0,0,2.32.52,30.57,30.57,0,0,1,6.4,2.11,29.1,29.1,0,0,1,8.51,6.25c1.5,1.46,3,3.13,4.64,4.86s3.49,3.5,5.16,5.45a11.54,11.54,0,0,1,2,3.26,16.89,16.89,0,0,1,.91,4,32.32,32.32,0,0,1-.12,8.77,43.72,43.72,0,0,1-.87,4.57l-.15.57-.08.28c0,.1-.07.37-.08.43l-.18,1.19c-.12.8-.24,1.6-.37,2.42a39.34,39.34,0,0,1-2.41,9.71,23,23,0,0,1-5.68,8.53A20.82,20.82,0,0,1,538,229a39.88,39.88,0,0,1-5.55.84,29.9,29.9,0,0,1-5.66.13c-1.84-.16-3.74-.73-5.76-1.08a48,48,0,0,0-6.11-.67,70.11,70.11,0,0,0-13.13.63c-4.43.63-8.81,1.58-13.25,2.63-2.22.53-4.45,1.23-6.59,1.89a55,55,0,0,1-6.57,1.5c-4.5.77-9,1.62-13.41,1.26A27.66,27.66,0,0,1,449.56,232c-1.87-1.14-3.74-2.44-5.51-3.73a61.17,61.17,0,0,1-5-4.2,75.42,75.42,0,0,1-15-19.87A79.11,79.11,0,0,1,419,194a25.65,25.65,0,0,1-1.77-10,28.43,28.43,0,0,1,1.83-9,35,35,0,0,1,3.67-7.05,32.59,32.59,0,0,1,7.79-8.19c2.14-1.58,3.43-2.26,3.39-2.34a3.66,3.66,0,0,0-1,.45,28.39,28.39,0,0,0-2.72,1.63,31.56,31.56,0,0,0-8.34,8.38,33.14,33.14,0,0,0-3.88,7.37,28.47,28.47,0,0,0-1.88,9.51,27.66,27.66,0,0,0,2.1,10.64,93.34,93.34,0,0,0,5.18,10.55,83.55,83.55,0,0,0,6.7,10.59,72,72,0,0,0,8.84,9.72,57.14,57.14,0,0,0,5.24,4.25,65,65,0,0,0,5.69,3.75,28.87,28.87,0,0,0,13.32,3.84,41,41,0,0,0,6.94-.41c2.28-.31,4.49-.69,6.74-1.09A53.14,53.14,0,0,0,483.5,235c2.14-.67,4.23-1.26,6.37-1.75,4.28-1,8.53-1.88,12.69-2.42a67.9,67.9,0,0,1,12.26-.53,43.26,43.26,0,0,1,5.85.64c1.91.32,3.84.9,5.92,1.09a31.82,31.82,0,0,0,6-.14,42.79,42.79,0,0,0,5.83-.9,22.6,22.6,0,0,0,10.29-5.3,24.83,24.83,0,0,0,6.11-9.25,40.9,40.9,0,0,0,2.43-10.1l.35-2.47.17-1.22a1.09,1.09,0,0,1,0-.17l.08-.31.15-.6a42.91,42.91,0,0,0,.85-4.76,33.74,33.74,0,0,0,0-9.2,18.49,18.49,0,0,0-1.06-4.28,13,13,0,0,0-2.27-3.63c-1.81-2.05-3.67-3.72-5.33-5.42s-3.21-3.34-4.77-4.78a29.12,29.12,0,0,0-9-6.17,26.85,26.85,0,0,0-6.64-1.79A8,8,0,0,0,527.49,161.37Z" transform="translate(-157.59 -19.5)"/><path class="cls-2" d="M547.57,207.78c3.27,1.35,6.31,2.5,9,3.46,5,1.75,8.73,2.85,11.67,3.7.16.05,2.8.81,6.37,1.69,0,0,2.53.62,7.47,1.38,3,.45,4.14.52,4.66-.17.19-.26.26-.58-.24-2.88a47.76,47.76,0,0,0-1.57-5.43c-.65-1.9-.85-2.31-1.33-2.56s-1.07-.22-2.88.24a27.34,27.34,0,0,0-3.26.94c-3.91,1.54-14.86-2.05-16-2.44-4.48-1.49-8.61-3-12.4-4.44" transform="translate(-157.59 -19.5)"/><path class="cls-1" d="M549.1,201.27a11.36,11.36,0,0,0,2.65,1.26c1.74.71,4.27,1.71,7.42,2.91,1.57.61,3.31,1.26,5.23,1.81a61.58,61.58,0,0,0,6.19,1.53,26.94,26.94,0,0,0,3.47.44,9.67,9.67,0,0,0,3.82-.41c1.14-.32,2.28-.66,3.46-1a7,7,0,0,1,1.65-.28c.38.05.46.08.72.67.6,1.57,1.19,3.38,1.68,5.12.24.88.45,1.8.63,2.71a8.32,8.32,0,0,1,.17,1.26c0,.17,0,0,0,.12a.67.67,0,0,1-.29.12,10,10,0,0,1-2.62-.12l-2.84-.43c-.95-.15-1.89-.32-2.82-.49l-1.4-.27-.69-.14-.34-.07-.17,0-.08,0h0l.06,0h0c0,.08.17-.25-.29.59l.15-.64-5.4-1.39c-1.76-.45-3.43-1-5-1.51l-4.62-1.4c-1.45-.46-2.83-.81-4-1.29-2.45-.89-4.46-1.6-5.87-2.08a10.37,10.37,0,0,0-2.23-.65,11.47,11.47,0,0,0,2.11,1c1.37.6,3.36,1.44,5.79,2.44,1.21.54,2.59.93,4,1.44l4.58,1.55c1.62.51,3.27,1.14,5,1.62l5.37,1.5-.15-.06a1,1,0,0,0,.24.08l.09,0,.18,0,.36.09.71.16,1.43.3c1,.19,1.92.37,2.88.53s1.93.33,2.9.47c.49.07,1,.14,1.49.18a5.24,5.24,0,0,0,1.69-.09,1.89,1.89,0,0,0,1-.6,1.63,1.63,0,0,0,.35-1.15,12.31,12.31,0,0,0-.21-1.53c-.19-.95-.4-1.88-.65-2.8-.51-1.83-1-3.5-1.7-5.22a3,3,0,0,0-.7-1.07,2.17,2.17,0,0,0-.65-.38,2,2,0,0,0-.69-.13,8.54,8.54,0,0,0-2.07.33c-1.23.32-2.44.7-3.63,1.05a8.33,8.33,0,0,1-3.22.35,27.3,27.3,0,0,1-3.3-.37c-2.16-.37-4.2-.85-6.09-1.37s-3.63-1.06-5.22-1.61c-3.18-1.07-5.77-1.91-7.57-2.46A10.89,10.89,0,0,0,549.1,201.27Z" transform="translate(-157.59 -19.5)"/><path class="cls-1" d="M550.48,212.43c-.06-.09-.32,0-.75.13s-1.14.29-1.34-.1a4.34,4.34,0,0,1-.31-2.44c.06-1.06.23-2.25.42-3.51a18.59,18.59,0,0,1,1.31-5.14,6.44,6.44,0,0,1,1.45-1.92c.52-.54,1.21-.9,1.37-.8s.26.22.34.45a2.91,2.91,0,0,1,.17.64c.08.39.12.62.19.62s.17-.21.23-.64a2.88,2.88,0,0,0,0-.78,1.35,1.35,0,0,0-.58-1,1.53,1.53,0,0,0-1.34,0,4.94,4.94,0,0,0-1.13.7,7.06,7.06,0,0,0-1.89,2.17,16.63,16.63,0,0,0-1.6,5.45,23.09,23.09,0,0,0-.33,3.7,8.52,8.52,0,0,0,.18,1.7,2.71,2.71,0,0,0,.77,1.52,1.53,1.53,0,0,0,.79.38,1.59,1.59,0,0,0,.71-.06,2.53,2.53,0,0,0,.86-.46C550.4,212.75,550.54,212.51,550.48,212.43Z" transform="translate(-157.59 -19.5)"/></g></svg>