<svg xmlns="http://www.w3.org/2000/svg" viewBox="0 0 772.82 219.94"><defs><style>.cls-1,.cls-11,.cls-2,.cls-4,.cls-6{fill:none;}.cls-1,.cls-10,.cls-11,.cls-12,.cls-2,.cls-3,.cls-4,.cls-6,.cls-9{stroke:#9cc;stroke-miterlimit:10;}.cls-1,.cls-10,.cls-2,.cls-3,.cls-4,.cls-6{stroke-width:2px;}.cls-2,.cls-5{opacity:0.5;}.cls-10,.cls-12,.cls-3,.cls-9{fill:#fff;}.cls-4{opacity:0.7;}.cls-5,.cls-7,.cls-8{fill:#9cc;}.cls-6,.cls-8{opacity:0.8;}.cls-10,.cls-11,.cls-12{stroke-linecap:round;}.cls-11,.cls-12{stroke-width:4px;}</style></defs><title>Baniere fruits bleu clair</title><g id="Calque_11" data-name="Calque 11"><path class="cls-1" d="M750.2,86.71a42.51,42.51,0,0,0-15-1.2c-11.74,1.23-19.62,7.32-23,10a49.38,49.38,0,0,0-14.89,19.72A50.08,50.08,0,0,0,694,140.2,48.48,48.48,0,0,0,702.51,164a43.37,43.37,0,0,0,18.23,15.2c14.56,6.27,28.1,1.93,33,.34a49,49,0,0,0,21.44-13.14c12.07-12.9,12.8-28.41,12.93-32.6a45.53,45.53,0,0,0-5.07-23.93C773.56,92.26,754.6,87.76,750.2,86.71Z" transform="translate(-94.38 -13.07)"/><path class="cls-1" d="M750.11,78.92c-.23-.38,6.69-3.37,12.35-10.28,3.53-4.31,2.47-5.13,5.9-9.06A35.24,35.24,0,0,1,782.58,50a43.25,43.25,0,0,1,11-2.65A56.15,56.15,0,0,1,816.27,49a53.39,53.39,0,0,1,14.35,6.49c3.19,2.08,5.37,4,16.57,17s13.66,15.93,12.5,18.45c-.72,1.57-3.37,2.2-8.65,3.39a96.32,96.32,0,0,1-19.23,2.2,113.39,113.39,0,0,1-13.13,0A85.17,85.17,0,0,1,796,90.92c-5.56-2.15-10.15-3.92-15.69-7.61-5.17-3.45-7.72-6.25-13.27-7.35a23.74,23.74,0,0,0-8.76,0C753.4,76.89,750.27,79.19,750.11,78.92Z" transform="translate(-94.38 -13.07)"/><path class="cls-1" d="M823.2,103.74" transform="translate(-94.38 -13.07)"/><path class="cls-2" d="M751.71,77.64c-.07-.26,15.75-8.26,37-8.46,10.43-.1,18.55,2,34.79,6.37,16.82,4.47,36.74,9.76,36.33,14.33S839.06,96,835.23,96.35A91,91,0,0,1,810.08,95a85.37,85.37,0,0,1-26.14-9.78c-8.23-4.8-11.07-8.45-18.4-9.38A29.6,29.6,0,0,0,751.71,77.64Z" transform="translate(-94.38 -13.07)"/><path class="cls-3" d="M747.42,85.43c-1.37.87-2.69.07-3.52,1.06a3.06,3.06,0,0,0-.2,2.73,4.85,4.85,0,0,0,2.06,2.34,10,10,0,0,0,4.16,1.93c1.42.3,4.67,1,5.92-.78a3.77,3.77,0,0,0,0-3.9c-.68-1.09-1.6-1-2.18-2.2a4.63,4.63,0,0,1-.16-2.93A15.27,15.27,0,0,1,755,79c1-2,1.66-2.59,1.34-3.25s-1-.7-2.36-.91c-1-.17-2.14-.36-2.93.31a2.15,2.15,0,0,0-.59.91c-.79,2.1-.68,3.85-1.13,5.71C748.92,83.3,748.59,84.68,747.42,85.43Z" transform="translate(-94.38 -13.07)"/><path class="cls-3" d="M823.64,121.31a43.86,43.86,0,0,0-18.95-.2c-3,.67-15.7,4-23.69,15.8-11.92,17.68-2.62,38.74-1.31,41.7a48.23,48.23,0,0,0,19,21.61,47.52,47.52,0,0,0,33.94,5.3c3.92-.89,20.79-5.28,29.15-21A35.1,35.1,0,0,0,866,164.06c-.8-6.91-3.68-11.56-7.28-17.37-3-4.89-7.58-12.05-16.46-17.92A52.16,52.16,0,0,0,823.64,121.31Z" transform="translate(-94.38 -13.07)"/><path class="cls-1" d="M825,126.81c-5.1-1.36-11.47-3-18.9-.68-9.83,3.13-18.49,12.41-19.7,23.56-1.28,11.79,6.37,20.29,11.64,26.13a45.93,45.93,0,0,0,23.19,14.3c5.87,1.45,19.78,4.88,30.12-3.88,8.93-7.57,9.12-19.07,9.12-20.38,0-9.34-5-15.62-9.72-21.54C847.92,140.82,839.62,130.71,825,126.81Z" transform="translate(-94.38 -13.07)"/><path class="cls-4" d="M823.23,163.59A4.18,4.18,0,0,0,826,161a4.12,4.12,0,0,0-.1-3.42,3.92,3.92,0,0,0-7.16,3.09A4.07,4.07,0,0,0,823.23,163.59Z" transform="translate(-94.38 -13.07)"/><path class="cls-5" d="M817.65,152.74c-1.46-1.43-3.43-3.45-5.65-6-2.65-3-4.53-5.5-7.24-9.09-1.34-1.77-3.07-4.11-5.06-6.9" transform="translate(-94.38 -13.07)"/><path class="cls-5" d="M825.13,151.16a47.37,47.37,0,0,1,8.47-19" transform="translate(-94.38 -13.07)"/><path class="cls-5" d="M831.58,154.32c3.63-2.41,7.35-5.07,11.12-8q2.2-1.71,4.28-3.41" transform="translate(-94.38 -13.07)"/><path class="cls-5" d="M833.55,158.44q5.37.69,11.05,1.25,7,.67,13.5,1" transform="translate(-94.38 -13.07)"/><path class="cls-5" d="M835.41,163.51a42.25,42.25,0,0,1,12.15,8.68,40.79,40.79,0,0,1,5.11,6.41" transform="translate(-94.38 -13.07)"/><path class="cls-5" d="M827.12,167.93a83.86,83.86,0,0,0,5.8,8.92A82,82,0,0,0,842,187.12" transform="translate(-94.38 -13.07)"/><path class="cls-5" d="M820.77,168.18c-.83,3.53-1.89,7.33-3.23,11.31-.89,2.64-1.83,5.13-2.79,7.47" transform="translate(-94.38 -13.07)"/><path class="cls-5" d="M800.14,174.11a53,53,0,0,1,15.62-13.31" transform="translate(-94.38 -13.07)"/><path class="cls-5" d="M811.45,155.93a45.66,45.66,0,0,1-22.14-6.4" transform="translate(-94.38 -13.07)"/></g><g id="Calque_12" data-name="Calque 12"><path class="cls-3" d="M249,117.48a62.62,62.62,0,0,0-19.59-11.07c-4.31-1.43-19.23-6.11-36.13.24-4.69,1.76-15.34,5.93-22.86,17.07-10.91,16.15-6.49,34-5.52,37.58.64,2.33,5.82,20.28,22.42,28.81,7.3,3.75,14.12,4.29,23.57,5,6.88.54,14,1.11,22.87-1.14,4.74-1.2,14.88-3.89,23.84-12.84,3.13-3.13,9.71-9.7,11.81-20.41,2.65-13.44-3.57-24.13-5.65-27.7C259.43,125.64,254.05,121.44,249,117.48Z" transform="translate(-94.38 -13.07)"/><path class="cls-3" d="M166.66,120.64c9,4.25,13.28,11.5,16.8,17.43a56.36,56.36,0,0,1,7.8,31.87,48.15,48.15,0,0,1-4.87,19.28,43.73,43.73,0,0,1-18.85,19.59c-8,4.12-15.13,4.41-21.85,4.69a64.05,64.05,0,0,1-23.16-3.23c-4.77-1.65-9.47-3.26-14.36-7.45a36.55,36.55,0,0,1-10.94-16.94,40,40,0,0,1-1-20.16c1.65-8.66,5.54-14.37,9.85-20.7a78.1,78.1,0,0,1,12.51-14.22,49.87,49.87,0,0,1,11.63-8.35,45.17,45.17,0,0,1,12.62-4.13C147,117.62,156.78,116,166.66,120.64Z" transform="translate(-94.38 -13.07)"/><path class="cls-1" d="M139,235.2" transform="translate(-94.38 -13.07)"/><path class="cls-1" d="M198.77,179" transform="translate(-94.38 -13.07)"/><path class="cls-1" d="M92.88,128.29" transform="translate(-94.38 -13.07)"/><path class="cls-6" d="M124.89,162.45c1.42-2.29,3.43-1.37,6-3.41,3.19-2.49,2.76-5.87,5.51-6.49.48-.11.25,0,2.73.25a57.89,57.89,0,0,1,6.24.47c2.51.47,3,1,3.18,1.4.36.67,0,1.05.11,2.32.14,1.59.75,1.69,1.36,3.82.42,1.46.74,2.68.19,3.88a4,4,0,0,1-1.47,1.63c-1.25.8-2,.31-3.06.93-1.27.74-.81,1.84-1.81,2.81-1.69,1.63-4-.56-8.91.44-2.84.57-4.23,1-4.23,1-1.86.55-2.49.9-3.08.54-1-.59-.2-2.05-1.36-3.82-.83-1.28-1.63-1.13-2-2.23A4.41,4.41,0,0,1,124.89,162.45Z" transform="translate(-94.38 -13.07)"/><path class="cls-1" d="M76.27,138.05" transform="translate(-94.38 -13.07)"/><path class="cls-7" d="M135.54,149.88c-.38.15-.94-.37-1.21-.72-.57-.78-.62-2-.11-2.33.34-.2.88.06,1.18.33C136.26,147.93,136.08,149.65,135.54,149.88Z" transform="translate(-94.38 -13.07)"/><path class="cls-7" d="M134.08,144.12c.37-.15.34-1,.33-1.18,0-.36,0-.93-.44-1.15a.83.83,0,0,0-.78,0c-.51.32-.34,1.14-.33,1.18C133,143.69,133.71,144.27,134.08,144.12Z" transform="translate(-94.38 -13.07)"/><path class="cls-7" d="M132,148.11c.49-.16.32-1.75.29-2-.05-.43-.12-1-.44-1.14s-.71.37-.76.43a1.63,1.63,0,0,0-.33,1.18C130.81,147.45,131.56,148.23,132,148.11Z" transform="translate(-94.38 -13.07)"/><path class="cls-7" d="M131.43,153.19c.39-.15.5-1,.31-1.57s-.67-1.22-1.22-1.11a1.13,1.13,0,0,0-.72,1.21,1.38,1.38,0,0,0,.42.75C130.39,152.66,131,153.35,131.43,153.19Z" transform="translate(-94.38 -13.07)"/><path class="cls-7" d="M140.05,146.93c.42-.12.52-1.18.29-2-.11-.4-.44-1.14-.83-1.12s-.78.86-.7,1.59S139.65,147.05,140.05,146.93Z" transform="translate(-94.38 -13.07)"/><path class="cls-7" d="M127.41,158.44a1.65,1.65,0,0,0-.87-1.9c-.33-.15-.9-.24-1.16.06s-.08.76.06,1.16c0,.16.55,1.56,1.24,1.49C127.06,159.22,127.32,158.73,127.41,158.44Z" transform="translate(-94.38 -13.07)"/><path class="cls-7" d="M124.6,156.64c.35-.31.24-1.08-.08-1.55a1.61,1.61,0,0,0-1.58-.7c-.15,0-.61.09-.76.42s.32,1,.45,1.15C123.15,156.53,124.17,157,124.6,156.64Z" transform="translate(-94.38 -13.07)"/><path class="cls-7" d="M119.6,157.66c.08-.21-.18-.49-.43-.75a1.94,1.94,0,0,0-1.58-.7,1,1,0,0,0-.76.42.85.85,0,0,0,0,.78C117.34,158.27,119.41,158.18,119.6,157.66Z" transform="translate(-94.38 -13.07)"/><path class="cls-7" d="M121.38,162.24c.28-.35,0-1.12-.46-1.53a1.71,1.71,0,0,0-2-.29.67.67,0,0,0-.37.4c-.12.52.74,1.06.83,1.13C120,162.32,121.05,162.66,121.38,162.24Z" transform="translate(-94.38 -13.07)"/><path class="cls-7" d="M112.58,165c.88.18,1.9-.39,1.9-.87s-.72-.71-.81-.74a2.19,2.19,0,0,0-1.55.08c-.43.13-.7.22-.76.42C111.26,164.27,111.9,164.87,112.58,165Z" transform="translate(-94.38 -13.07)"/><path class="cls-7" d="M116.55,166.75c.2-.25.52-.31,1.15-.44a3,3,0,0,1,1.16-.06,1.05,1.05,0,0,1,.8.35.89.89,0,0,1,0,.77,1.66,1.66,0,0,1-1.12.84c-.7.25-1.48.54-1.94.09A1.26,1.26,0,0,1,116.55,166.75Z" transform="translate(-94.38 -13.07)"/><path class="cls-7" d="M114.32,168.81c.46-.15,1.19-.52,1.13-.84s-.47-.37-.8-.35a1.11,1.11,0,0,0-.75.43c-.19.2-.48.62-.35.8S114.12,168.87,114.32,168.81Z" transform="translate(-94.38 -13.07)"/><path class="cls-7" d="M141.74,149.57c.49.11,1-.69,1.12-.83s.7-1,.31-1.57a1,1,0,0,0-.79-.35,1.32,1.32,0,0,0-1.12.83C140.91,148.4,141.24,149.45,141.74,149.57Z" transform="translate(-94.38 -13.07)"/><path class="cls-7" d="M144.41,148.66c.7-.09,1.1-1.18,1.07-2,0-.36-.12-1.07-.44-1.14s-1,.92-1.11,1.22c-.28.54-.59,1.14-.31,1.57A.84.84,0,0,0,144.41,148.66Z" transform="translate(-94.38 -13.07)"/><path class="cls-7" d="M147.53,148.89c.72-.12,1-1.48,1.07-2,.06-.31.26-1.4-.08-1.56s-.8.47-1.12.84a2.94,2.94,0,0,0-.72,1.2,1.32,1.32,0,0,0,.06,1.16A.89.89,0,0,0,147.53,148.89Z" transform="translate(-94.38 -13.07)"/><path class="cls-8" d="M130,155.59c.19-.21-.1-.81-.44-1.14-.14-.13-.48-.47-.8-.35a.71.71,0,0,0-.35.79C128.54,155.55,129.74,155.87,130,155.59Z" transform="translate(-94.38 -13.07)"/><path class="cls-8" d="M127.12,152.63c.24-.38-.2-1.22-.85-1.52-.27-.12-.86-.27-1.16.06a1,1,0,0,0,.06,1.16C125.63,153,126.86,153.05,127.12,152.63Z" transform="translate(-94.38 -13.07)"/><path class="cls-8" d="M118.38,164.33c-.06-.31-.93-.44-1.57-.31-.25,0-.67.14-.76.43a.74.74,0,0,0,.43.75C117.18,165.58,118.45,164.73,118.38,164.33Z" transform="translate(-94.38 -13.07)"/><path class="cls-7" d="M117.17,171.39c0,.14-.11.37-1.12.83s-1.62.74-1.92.48-.22-.81-.06-1.16a1.78,1.78,0,0,1,1.13-.83,1.69,1.69,0,0,1,1.55-.08A.86.86,0,0,1,117.17,171.39Z" transform="translate(-94.38 -13.07)"/><path class="cls-7" d="M117.7,174.08c.1.29-.43.74-1.48,1.63s-1.23.89-1.51.85a1,1,0,0,1-.81-.74c0-.09,0-.32.35-.79a3,3,0,0,1,1.88-1.26C116.66,173.68,117.56,173.71,117.7,174.08Z" transform="translate(-94.38 -13.07)"/><path class="cls-8" d="M122.74,173.83c-.26-.31-1.11,0-1.17.06a2,2,0,0,0-1.1,1.22c-.09.29-.24,1,0,1.16s1-.31,1.15-.44C122.41,175.23,123,174.18,122.74,173.83Z" transform="translate(-94.38 -13.07)"/><path class="cls-8" d="M118.64,177.53c.21.3-.5,1.16-1.08,1.61-.25.19-.83.64-1.15.44s-.24-.76,0-1.16C116.8,177.47,118.4,177.17,118.64,177.53Z" transform="translate(-94.38 -13.07)"/><path class="cls-7" d="M122.52,177.34c.25.38-.55,1.43-1.45,2-.66.43-1.66.8-1.92.49s.19-1,.33-1.19a3,3,0,0,1,1.49-1.24C121.34,177.28,122.31,177,122.52,177.34Z" transform="translate(-94.38 -13.07)"/><path class="cls-7" d="M125.31,178.75c.25.45-.33,1.15-.7,1.59s-1.42,1.53-1.88,1.26-.21-1.11-.07-1.55c.08-.27.48-1.44,1.47-1.63C124.52,178.35,125.12,178.4,125.31,178.75Z" transform="translate(-94.38 -13.07)"/><path class="cls-7" d="M122,183.19c.26.33-.4,1.2-.69,1.59s-1.08,1.43-1.5,1.24-.27-1-.07-1.55a2.09,2.09,0,0,1,1.1-1.22C121.19,183.11,121.84,182.93,122,183.19Z" transform="translate(-94.38 -13.07)"/><path class="cls-7" d="M129.25,179.72c-.45-.16-1.17.7-1.5,1.24-.45.75-.86,2.06-.25,2.74a1.06,1.06,0,0,0,.79.35c.66-.09,1-1.15,1.09-1.61C129.66,181.46,129.77,179.92,129.25,179.72Z" transform="translate(-94.38 -13.07)"/><path class="cls-7" d="M130.33,178.12c.38.07.89-.87,1.09-1.61.14-.55.23-1.42-.08-1.55s-.57.24-.75.42a2.18,2.18,0,0,0-.7,1.59C129.89,177.35,130,178.06,130.33,178.12Z" transform="translate(-94.38 -13.07)"/><path class="cls-7" d="M132,180.36c.61.25,1.7-1,2.23-2.05.2-.41.61-1.24.31-1.57s-1.33,0-1.92.48a2.58,2.58,0,0,0-1.07,2C131.56,179.4,131.58,180.2,132,180.36Z" transform="translate(-94.38 -13.07)"/><path class="cls-7" d="M135,178.66c.47,0,.94,1.53.53,2.69-.22.62-.74,1.31-1.11,1.23S134,181.53,134,181C134,179.92,134.57,178.62,135,178.66Z" transform="translate(-94.38 -13.07)"/><path class="cls-7" d="M132.93,183.43c-.1.8-.23,1.89-.68,2s-.68-.36-.82-.73a2,2,0,0,1,.32-1.57c.26-.52.82-1.33,1.1-1.22S133,182.77,132.93,183.43Z" transform="translate(-94.38 -13.07)"/><path class="cls-7" d="M139.34,179.61a1.43,1.43,0,0,1,1.59.7,1.05,1.05,0,0,1,0,.77,1.45,1.45,0,0,1-1.51.86,4.44,4.44,0,0,1-1.2-.72c-.75-.52-.84-.64-.81-.74s.45-.11,1.14-.44C139.08,179.8,139.05,179.68,139.34,179.61Z" transform="translate(-94.38 -13.07)"/><path class="cls-7" d="M141.82,182.6c.67.16.83,1.05.84,1.12a1.51,1.51,0,0,1-.7,1.59,1.32,1.32,0,0,1-1.57-.31,1.56,1.56,0,0,1,.29-2A1.33,1.33,0,0,1,141.82,182.6Z" transform="translate(-94.38 -13.07)"/><path class="cls-7" d="M127.79,181.74" transform="translate(-94.38 -13.07)"/><path class="cls-7" d="M146.83,173.8a1.59,1.59,0,0,1,1.24,1.49c-.08.84-1.19,1.23-1.88,1.26a2,2,0,0,1-2-1.07,1.08,1.08,0,0,1,0-.77c.24-.6,1.15-.75,1.9-.87A2,2,0,0,1,146.83,173.8Z" transform="translate(-94.38 -13.07)"/><path class="cls-7" d="M144.83,180.5c.4,0,.75.63.81.74a1.87,1.87,0,0,1,.08,1.55c-.05.14-.32.81-.74.82s-.73-.67-.83-1.13C144,181.61,144.36,180.56,144.83,180.5Z" transform="translate(-94.38 -13.07)"/><path class="cls-7" d="M148.69,172.15c.47-.3,1.51.55,2,1.07.09.1,1.23,1.34.87,1.9s-1.59.38-2.35-.27C148.3,174.06,148.2,172.47,148.69,172.15Z" transform="translate(-94.38 -13.07)"/><path class="cls-7" d="M150.05,176c.34-.46,1.59-.15,2.34.27.37.21,1.3.73,1.24,1.5a1.57,1.57,0,0,1-1.49,1.24C150.74,179,149.57,176.62,150.05,176Z" transform="translate(-94.38 -13.07)"/><ellipse class="cls-8" cx="144.35" cy="178.59" rx="0.78" ry="1.16" transform="translate(-103.07 -5.69) rotate(-2.84)"/><path class="cls-8" d="M153.38,172.7a3.27,3.27,0,0,0,1.63,1.47c.77.22,1.79,0,1.92-.48s-.35-.73-1.24-1.5c-.58-.5-.69-.5-2-1.45-.85-.61-1.07-.81-1.2-.72s.23,1.4.48,1.92A6,6,0,0,0,153.38,172.7Z" transform="translate(-94.38 -13.07)"/><path class="cls-7" d="M158.25,169c.38-.44,1.92.41,2.36.66.67.37,1.25.68,1.22,1.1s-.63.76-1.12.84a2.38,2.38,0,0,1-2-1.07C158.42,170.09,158,169.27,158.25,169Z" transform="translate(-94.38 -13.07)"/><path class="cls-7" d="M156.62,167.48c.13-.34,1-.46,1.55-.07.24.16.52.51.43.75s-1,.47-1.55.08C156.81,168.07,156.53,167.73,156.62,167.48Z" transform="translate(-94.38 -13.07)"/><path class="cls-7" d="M156.91,165.53c.05.46,1,.67,1.2.71s1.83.39,2.31-.5a1.13,1.13,0,0,0-.06-1.16c-.52-.7-1.94-.33-2.71.13C157.4,164.86,156.88,165.17,156.91,165.53Z" transform="translate(-94.38 -13.07)"/><path class="cls-7" d="M153.93,160.23c-.06-.5,1-1.08,1.88-1.26.65-.13,1.77-.17,2,.3s-.59,1.35-1.48,1.62S154,160.75,153.93,160.23Z" transform="translate(-94.38 -13.07)"/><path class="cls-7" d="M147.61,150.44c-.21-.72.95-1.51,1.09-1.61a2.25,2.25,0,0,1,1.53-.46c.42,0,1.11.27,1.2.72,0,.06,0,.27-.35.79a2.69,2.69,0,0,1-1.49,1.24C148.84,151.3,147.79,151,147.61,150.44Z" transform="translate(-94.38 -13.07)"/><path class="cls-7" d="M153,149c.47.25,1.76-.59,1.86-1.65,0-.42-.09-1-.44-1.14s-1.22.52-1.5,1.24C152.7,148,152.64,148.82,153,149Z" transform="translate(-94.38 -13.07)"/><path class="cls-7" d="M156.78,147.27c-.21-1,3.14-2.41,3.37-2.5s2.12-.85,2.31-.51c.07.13-.1.35-1.47,1.63-2,1.88-2.45,2.14-3,2.09S156.86,147.68,156.78,147.27Z" transform="translate(-94.38 -13.07)"/><path class="cls-8" d="M154.71,152.42c.29-.77,1.13-1,1.88-1.26s1.27-.38,1.55-.07,0,1.11-.31,1.57c-.77,1.08-2.54,1.51-3.07.92C154.42,153.2,154.68,152.49,154.71,152.42Z" transform="translate(-94.38 -13.07)"/><path class="cls-7" d="M158.91,158.82c0-.28.76-.49,2.29-.89,1-.27,1.36-.28,1.55-.08a.8.8,0,0,1,0,.78c-.34.82-1.74.86-1.9.87C160,159.53,158.91,159.17,158.91,158.82Z" transform="translate(-94.38 -13.07)"/><path class="cls-7" d="M158.29,162c.22-.5,1.18-.49,1.92-.48s1.49,0,1.57.31c.12.5-2,2-3.05,1.31A1,1,0,0,1,158.29,162Z" transform="translate(-94.38 -13.07)"/><path class="cls-8" d="M152.24,157.6c0-.48,1.4-.77,1.9-.88.65-.13,1.06-.22,1.16-.05.2.32-.73,1.67-1.86,1.64C152.87,158.3,152.23,157.92,152.24,157.6Z" transform="translate(-94.38 -13.07)"/><path class="cls-7" d="M156.78,155h0a8.62,8.62,0,0,1,2.29-.89c.36,0,1.09,0,1.18.33s-.79,1-1.49,1.24c-.33.12-1.14.43-1.56.08A2.1,2.1,0,0,1,156.78,155Z" transform="translate(-94.38 -13.07)"/><path class="cls-1" d="M113.88,206.73a61.55,61.55,0,0,0,37.33-3.62c5.36-2.27,19.7-8.64,27.77-24.94,1.44-2.91,9-18.83,3-37.34a48.38,48.38,0,0,0-9.17-16.33" transform="translate(-94.38 -13.07)"/></g><g id="Calque_10" data-name="Calque 10"><path class="cls-9" d="M518.92,26.11c-7.21-.47-11.63,5.59-12.23,6.44-.8,1.14-4.25,6.05-2.44,10.45,2.16,5.24,10.79,7.25,16.89,4.44,5.73-2.63,10.1-9.92,7.67-15.44C526.47,26.7,519.26,26.13,518.92,26.11Z" transform="translate(-94.38 -13.07)"/><path class="cls-9" d="M504.47,40.77A13.37,13.37,0,0,0,493.69,39c-5.28,1.57-10.05,7-9.22,13s6.54,9,10.45,9.89c5.2,1.2,13-.21,15.44-6.23C512.71,50,508.82,43.64,504.47,40.77Z" transform="translate(-94.38 -13.07)"/><path class="cls-9" d="M478.14,58.55c-3.31-.6-6.69,3.37-8,5.45-2.09,3.3-3.35,8.78-.22,13.22,3.46,4.91,10.67,6.25,13.77,3.78C489,76.76,484.37,59.68,478.14,58.55Z" transform="translate(-94.38 -13.07)"/><path class="cls-9" d="M500.14,60a18.27,18.27,0,0,0-11.45-5.56c-2.61-.31-7.14-.85-10.55,1.89-4.77,3.83-4.77,12-2.11,17.44,3.64,7.52,11.75,9,12.11,9,5.29.84,13-.7,15.89-6.77C507.64,68.44,500.64,60.55,500.14,60Z" transform="translate(-94.38 -13.07)"/><path class="cls-9" d="M501.81,61.44a9.13,9.13,0,0,0-5.45,5.67c-1.87,6.19,5.14,12.29,5.45,12.55,7.93,6.73,22.4,5.12,24.22.34C528.37,73.84,511.46,58,501.81,61.44Z" transform="translate(-94.38 -13.07)"/><path class="cls-9" d="M626.36,69.58c4.15-3.33,3.29-9.4,3.08-10.83-1.05-7.43-7.62-10.86-7.91-11-.79-.4-7.15-3.49-10.84-.75-5.32,4-3.64,19,4.42,23.16C618.13,71.73,623,72.28,626.36,69.58Z" transform="translate(-94.38 -13.07)"/><path class="cls-9" d="M631.86,92.11c.14-3.49,4.55-5.8,5.89-6.5.91-.48,7.79-3.94,13.44,0,3.28,2.28,6.29,7.14,4.62,11-2.27,5.27-11.16,4.37-11.95,4.28C638.37,100.32,631.68,96.51,631.86,92.11Z" transform="translate(-94.38 -13.07)"/><path class="cls-9" d="M635,83.5c-.3-2-.93-6.24-4.44-9.06-4.3-3.44-10.68-3-14.84-.61-7.19,4.1-9.49,15-5.38,22.5,2.69,5,8.74,9.57,14.55,8.44C633,103.2,636.13,91.25,635,83.5Z" transform="translate(-94.38 -13.07)"/><path class="cls-9" d="M618.14,101.11c3.61-3,8.85-2,11.55-1.45,5.52,1.1,15.21,5.3,15.45,12.78.21,6.81-7.56,11.16-7.89,11.33-5.4,2.93-13.13,2.86-18.11-1.88C613.1,116.14,613,105.38,618.14,101.11Z" transform="translate(-94.38 -13.07)"/><path class="cls-9" d="M667.69,91.55c1.59-4.12-.65-8.16-1.33-9.39a14,14,0,0,0-9.72-6.94A13.31,13.31,0,0,0,644.19,80c-.54.68-4,5.16-2.5,10.16,1.77,6.1,9.47,8.47,14.84,8.06C657.48,98.15,665.44,97.42,667.69,91.55Z" transform="translate(-94.38 -13.07)"/><path class="cls-9" d="M657.19,91.39a16,16,0,0,0-10.27,4.27c-3.15,2.93-6.44,8.39-5.06,13.28,2.33,8.26,17.21,12,25.33,6.67.65-.42,5.66-3.84,6-9.72s-4.1-9.69-5.22-10.67A15.9,15.9,0,0,0,657.19,91.39Z" transform="translate(-94.38 -13.07)"/><path class="cls-9" d="M692.31,129.66c-4.46-.45-11.44.94-13.23,5.84-1.92,5.25,3.21,11.69,8.56,13.94,7.45,3.14,17.76-.84,18.89-6.55S699.92,130.43,692.31,129.66Z" transform="translate(-94.38 -13.07)"/><path class="cls-9" d="M663.92,126.11c-3.81,5.13-.93,14.12,4.72,17.28,7.6,4.24,19.33-2.56,19.72-9.28.29-5-5.64-9.73-11.05-11.11C676.86,122.88,667.92,120.72,663.92,126.11Z" transform="translate(-94.38 -13.07)"/><path class="cls-9" d="M669.36,111.89a16.82,16.82,0,0,0-11-7.12,16.33,16.33,0,0,0-15.55,7c-5,7.37-2.92,18.54,4.66,23.56a16.23,16.23,0,0,0,17.11.44C672.62,130.84,674,119.1,669.36,111.89Z" transform="translate(-94.38 -13.07)"/><path class="cls-9" d="M615.58,126.55c1.72-4.19,21.68,1.31,22.56,1.56,7.25,2,9.16,4,10.11,5.78,2,3.76,1.22,9.63-1.78,11.66C638.67,150.84,613.49,131.67,615.58,126.55Z" transform="translate(-94.38 -13.07)"/><path class="cls-9" d="M698.14,116.44a13.78,13.78,0,0,0-3.45-7.44,14.42,14.42,0,0,0-15.44-3.67c-.87.33-5.64,2.15-7.44,7-2.13,5.71,1.1,12.25,5.77,15.44,5.36,3.66,13.53,3.58,17.78-1.11C698.87,122.8,698.26,117.38,698.14,116.44Z" transform="translate(-94.38 -13.07)"/><path class="cls-9" d="M705.81,121c-4.6-4-10.35-3.17-11.45-3-1.5.22-8,1.43-10.55,7-2.67,5.79.29,13.28,5.66,16.55,6.83,4.16,17.16,1.28,20.11-6C711.58,130.63,709.85,124.54,705.81,121Z" transform="translate(-94.38 -13.07)"/><path class="cls-9" d="M652.58,161.22c3,3.45,2.71,8.76.89,12.33-2.44,4.8-7.37,6.06-8.44,6.34-1.32.33-6,1.54-9.34-1-4.42-3.43-4.76-12.47.23-17.34C640.37,157.21,648.57,156.67,652.58,161.22Z" transform="translate(-94.38 -13.07)"/><path class="cls-9" d="M657.92,161.22c-2.35,1.2-3.46,4.36-3.11,6.89.74,5.51,8.56,9.41,12.22,7.11,2.2-1.38,2.69-4.88,2.11-7.33C668,162.93,661.74,159.25,657.92,161.22Z" transform="translate(-94.38 -13.07)"/><path class="cls-9" d="M626.14,98.16c1-2.67,4.08-3.81,5.17-4.22,5.48-2.06,10.65,1.11,12.38,2.17,2.39,1.46,5.13,3.14,5.56,5.89.73,4.69-5.57,10.92-11.89,10.66C630,112.37,624.15,103.24,626.14,98.16Z" transform="translate(-94.38 -13.07)"/><path class="cls-9" d="M667.47,139.66c-5.61-4-12.26-1.94-14.22-1.33s-6.3,2-8.56,5.78c-3.59,6.07-1.05,16.73,6.78,20.55,8.19,4,18.88-1.06,21.34-9.33A14.66,14.66,0,0,0,667.47,139.66Z" transform="translate(-94.38 -13.07)"/><path class="cls-9" d="M695.92,171a9.32,9.32,0,0,0,1.22,9c2.93,3.8,7.86,3.53,9.44,3.44,1.25-.07,6.63-.37,8.78-4.22,2.38-4.26-.15-11.17-5.44-13.56S697.92,166.05,695.92,171Z" transform="translate(-94.38 -13.07)"/><path class="cls-9" d="M676.14,156.77c-5.57,0-10.5,4-12.67,8.56-3.63,7.56-.19,17.75,7.45,21.89,8.37,4.53,19.87.73,22.44-5.89,1.68-4.33-.8-9-2.67-12.44S684.22,156.8,676.14,156.77Z" transform="translate(-94.38 -13.07)"/><path class="cls-9" d="M701.36,145.55c-.83-.54-6.51-4.12-13.11-2-6.78,2.18-11.12,9.27-10.78,16.34.33,6.9,5.13,13.83,12.67,15.33a16.15,16.15,0,0,0,18.11-10.67C710.84,157,707,149.24,701.36,145.55Z" transform="translate(-94.38 -13.07)"/><path class="cls-9" d="M729.36,133.44c-1.31-2.53-3.19-6.16-7.44-8a13.89,13.89,0,0,0-12.78,1.11c-6.51,4.25-7.23,13.55-5.22,19.78.23.74,4.06,12,13.55,12.44,6.15.29,11.33-4.12,13.56-8.77C734.35,143.06,730.81,136.24,729.36,133.44Z" transform="translate(-94.38 -13.07)"/><path class="cls-9" d="M753,151.77a14,14,0,0,0,5.89-8.22c1.63-6.41-1.78-12.71-6.11-16.11-1-.82-7.53-5.68-14.12-2.89-5.16,2.19-6.81,7.57-7.22,8.89-1.57,5.14-.9,12.62,4.78,17.11C740.94,154.26,747.88,155,753,151.77Z" transform="translate(-94.38 -13.07)"/><path class="cls-9" d="M720.69,187.33a16.05,16.05,0,0,1-9.88-4.56c-5.7-5.87-7.19-17.69-.45-23.33,6-5,15.4-2.5,20.67,1.89,4.49,3.75,9.08,11.45,5.89,18.33C733.94,186.08,726,187.87,720.69,187.33Z" transform="translate(-94.38 -13.07)"/><path class="cls-9" d="M759.58,179.44c3.8-.18,6.25-4.86,6.56-5.44,2.76-5.26.74-11.73-2.78-15.45a15.44,15.44,0,0,0-9.55-4.44c-2.85-.36-5.77-.73-7.23.78C742.27,159.37,751.46,179.83,759.58,179.44Z" transform="translate(-94.38 -13.07)"/><path class="cls-9" d="M735.25,143.55c-.71.06-7.91.74-12,6.89-4.44,6.68-3,16.53,3.33,22,5.09,4.38,13.33,5.94,19.78,1.67s8.44-12.69,6-19.45A17.07,17.07,0,0,0,735.25,143.55Z" transform="translate(-94.38 -13.07)"/><path class="cls-9" d="M752.58,172.11c-6.1-.81-10.68,2.92-11.44,3.55a15.23,15.23,0,1,0,25,13.67C767.36,180.43,760,173.08,752.58,172.11Z" transform="translate(-94.38 -13.07)"/></g><g id="Calque_9" data-name="Calque 9"><path class="cls-9" d="M316.25,178c-1.23-.57-10.13-4.73-15.67.33a12,12,0,0,0-2,14.33c5.39,8.5,25.69,5.52,28-1C328.1,187.38,322.15,180.75,316.25,178Z" transform="translate(-94.38 -13.07)"/><path class="cls-9" d="M259.94,182.5c-2-.81-6.3,2.69-7.08,7.25-1,5.52,3.68,10.47,5.83,10C262.1,199,263.33,183.88,259.94,182.5Z" transform="translate(-94.38 -13.07)"/><path class="cls-9" d="M276.19,173.66c-5.19,2.8-6.59,10-4.58,15.09,2.74,6.92,12.19,10.86,17.92,7.08,4.66-3.08,5.57-10.43,3-15.58C289.67,174.52,282,170.53,276.19,173.66Z" transform="translate(-94.38 -13.07)"/><path class="cls-9" d="M267.61,137.33c-.5.4-3.43,2.8-3.42,6.17,0,7.78,15.75,15.69,20.92,11.66,3.41-2.65,3.4-11.41-1.67-16.33C279.15,134.66,271.92,133.92,267.61,137.33Z" transform="translate(-94.38 -13.07)"/><path class="cls-9" d="M297.61,131.33c-4.28.62-10,10.47-5.17,18.08,4.54,7.12,15,7,17.59,3.67C314,148,303.83,130.42,297.61,131.33Z" transform="translate(-94.38 -13.07)"/><path class="cls-9" d="M283.78,107.16c-2.48-3.36-3.84-5.2-6-5.5-6.1-.84-15.42,11-12.59,17.92,3.21,7.8,21.47,8.11,24.5,2.58C291.89,118.17,286.37,110.68,283.78,107.16Z" transform="translate(-94.38 -13.07)"/><path class="cls-9" d="M259.44,126.75c-3.46-.19-7.4,1.75-8.41,5.16-1.32,4.44,2.75,10,7.75,10.09s9.36-5.28,8.25-9.75C266.21,129,262.65,126.92,259.44,126.75Z" transform="translate(-94.38 -13.07)"/><path class="cls-9" d="M283.42,115.55c-4.12-.71-8.05,2.16-9.45,5.56-2.19,5.31,1.51,12.61,6.89,13.22,4.29.49,8.8-3.38,9.5-8.17C291,121.56,288.15,116.37,283.42,115.55Z" transform="translate(-94.38 -13.07)"/><path class="cls-9" d="M318.42,88c1.16-2.19,3.77-2.73,5.61-3.11s4.75-1,7,.83a6.46,6.46,0,0,1,2.11,6.5c-1.3,4.39-8.82,6.71-12.67,3.67C318.3,94.17,317.06,90.55,318.42,88Z" transform="translate(-94.38 -13.07)"/><path class="cls-9" d="M322.08,99.77c-1-1.77.48-4.47,2.06-7.33s3.47-6.3,7.39-7.28c4.36-1.08,8.19,1.66,9.22,2.39a8.92,8.92,0,0,1,2.5,2.56,8.12,8.12,0,0,1,1.17,5.16C343.28,101.1,324.7,104.4,322.08,99.77Z" transform="translate(-94.38 -13.07)"/><path class="cls-9" d="M317.69,88.05a10,10,0,0,0-3.55-4.11,10.62,10.62,0,0,0-5.78-2.39c-5.35-.28-8.88,4.8-9.28,5.39A12.9,12.9,0,0,0,297,93.61a8.7,8.7,0,0,0,.67,4.78c1.93,3.46,8.11,4.59,12.67,2.77C315.76,99,319.33,92.37,317.69,88.05Z" transform="translate(-94.38 -13.07)"/><path class="cls-9" d="M286.64,97.72c-.1-1.3-1.59-2.46-4.56-4.78-3.67-2.87-5.51-4.3-8.11-4.67-5.2-.72-9.23,2.74-10.05,3.45-1.61,1.38-3,2.6-3.23,4.39-.45,4.16,6,9.23,12.28,9.66C279.82,106.25,286.91,101.28,286.64,97.72Z" transform="translate(-94.38 -13.07)"/><path class="cls-9" d="M283.75,121.11c-3.82-2.14-4.78-6.22-5.06-7.39-.18-.8-1.55-7,2.78-11.33a11.4,11.4,0,0,1,7.61-3.12,12.31,12.31,0,0,1,7.67,2.62c1.13.82,5.39,3.91,5.56,8.66.19,5.78-5.8,10.29-10.78,11.39A10.84,10.84,0,0,1,283.75,121.11Z" transform="translate(-94.38 -13.07)"/><path class="cls-9" d="M320.86,95.94a13.17,13.17,0,0,0-5.17-5.44,12,12,0,0,0-7.22-1.56c-3.45.4-5.6,2.36-9.11,5.56-2.53,2.3-4.52,4.12-5.94,7.33-.53,1.2-2.25,5.08-1.39,8.5,1.79,7.12,15.23,13.9,24.28,7.94C324,113.23,324.11,101.91,320.86,95.94Z" transform="translate(-94.38 -13.07)"/><path class="cls-9" d="M305.64,117.33a13.41,13.41,0,0,0-8.45-5.28c-1-.15-6.26-.82-10,3-4.68,4.72-2.38,11.84-2.27,12.16,2.6,7.64,11.68,8.94,12.66,9.06,1.9.24,6.78.85,9.73-2.17C311.28,130,309.21,121.87,305.64,117.33Z" transform="translate(-94.38 -13.07)"/><path class="cls-9" d="M269.36,97.83c-1.81-1.39-3.52-2.67-6.05-2.78a9.33,9.33,0,0,0-6.62,2.67A10.18,10.18,0,0,0,254.47,108c1.83,5.34,8.2,8,13.39,6.94,3.42-.73,7.69-3.41,8.17-7.33C276.54,103.36,272.32,100.11,269.36,97.83Z" transform="translate(-94.38 -13.07)"/><path class="cls-9" d="M266.36,111.89c-3.05-3.85-8.34-3.75-9.89-3.73a12.71,12.71,0,0,0-8.72,3.17,11.87,11.87,0,0,0-3.61,10.72,11.7,11.7,0,0,0,7.44,8.89c5.56,2,11.41-1,14.28-5.17C268.47,122,269.56,115.92,266.36,111.89Z" transform="translate(-94.38 -13.07)"/><path class="cls-9" d="M258.81,118.61a12.06,12.06,0,0,0,.77,20.22c6.17,3.59,13.37-.6,16.67-3.94.56-.57,6.39-6.63,4.17-12.06-1.6-3.89-6.33-5-9.06-5.72C269.09,116.55,263.57,115.19,258.81,118.61Z" transform="translate(-94.38 -13.07)"/><path class="cls-9" d="M282.58,130.94a12.07,12.07,0,0,0-7.61,4.33,11.47,11.47,0,0,0-1.66,11.45c2.38,5.43,8.53,6.39,10.27,6.67,4.57.71,11.85-.27,14.17-5.34,1.66-3.62-.07-7.45-.61-8.66C294.78,134.13,288.74,130,282.58,130.94Z" transform="translate(-94.38 -13.07)"/><path class="cls-9" d="M256.11,137.66c-1.76.4-8.57,2.23-12.25,8.92-.44.79-5.32,9.95-.75,15s14,1.19,14.67.92c5.9-2.47,11.73-8.77,11-15.67-.33-3.09-2.1-7.46-5.92-9.08C260.39,136.69,258.06,137.22,256.11,137.66Z" transform="translate(-94.38 -13.07)"/><path class="cls-9" d="M273.11,150.66c-2.59-.42-8.54-1.4-13.5,2.34-1,.78-4.84,3.64-4.83,7.66,0,6.43,9.73,10.09,10.83,10.5,1.63.62,12.76,4.81,17.92-1.66,2.93-3.69,3-9.6.25-13.59S276.66,151.25,273.11,150.66Z" transform="translate(-94.38 -13.07)"/><path class="cls-9" d="M290.86,145.16c-1.38.05-7.6.27-10.08,5-2,3.82-.51,8.49,1.83,11.17,4.57,5.24,12.67,3.28,14.5,2.83,1.46-.35,9.48-2.49,10.17-7.16C308.05,151.68,299.1,144.88,290.86,145.16Z" transform="translate(-94.38 -13.07)"/><path class="cls-9" d="M288.86,159.91a13.74,13.74,0,0,0-8.67,10.5c-.94,5.92,2.52,11.08,6.34,13.75,5.39,3.77,12.17,3.07,16.83.42.83-.47,7.33-4.29,7.58-10.25C311.32,165.64,298.25,156.54,288.86,159.91Z" transform="translate(-94.38 -13.07)"/><path class="cls-9" d="M249.78,167.58a12.19,12.19,0,0,0-2,11.17c2.75,8.31,14.06,8.89,14.58,8.91,6.86.26,16-3.55,16.75-10,.65-5.85-6-10.72-10.25-12.58C263.56,162.74,254.43,161.76,249.78,167.58Z" transform="translate(-94.38 -13.07)"/><path class="cls-9" d="M313.36,215.11c1.24-.21,4.78-.79,6.78-3.67,2.13-3.07,1.2-6.9.78-8.67-1.73-7.13-7.75-11.08-10.67-13-3.25-2.13-10-6.59-16.78-4.33-1.15.39-3.68,1.24-5,3.56-2.62,4.61,1.73,11.23,3.34,13.66C296,209,304.57,216.56,313.36,215.11Z" transform="translate(-94.38 -13.07)"/><path class="cls-9" d="M295.28,194.16c-2.84-.56-6.27-1.23-9.09.67-4.86,3.28-4.33,11.81-2.75,16.75.73,2.28,3.84,10.5,12,12.42.63.14,8.9,1.94,13.84-3.75,4.39-5.07,2.54-11.92,2.25-13C308.76,197,296.65,194.43,295.28,194.16Z" transform="translate(-94.38 -13.07)"/><path class="cls-9" d="M250.47,206.55a13.44,13.44,0,0,1,1-9.22c3.56-7.73,13.64-12,22-10.11,1.85.41,7.46,1.64,9.56,6.22,2.86,6.25-3.21,13.54-4.34,14.89-1,1.19-8.39,9.81-17.77,7.56C256.84,214.91,252,211.77,250.47,206.55Z" transform="translate(-94.38 -13.07)"/><path class="cls-9" d="M538.58,97.22c-5.68-.27-15,1.63-16.66,7.55-1.75,6.24,5.65,14.72,13.77,15.78,9.71,1.27,19.63-8.16,18.45-14.66C553.15,100.44,544.48,97.5,538.58,97.22Z" transform="translate(-94.38 -13.07)"/></g><g id="Calque_7" data-name="Calque 7"><path class="cls-10" d="M333.91,63.87A61.78,61.78,0,0,0,350,97c17.31,18.17,39.74,18.76,44,18.78,5.14,0,27.67.17,44-18.06,15.4-17.21,14-38.2,13.67-42" transform="translate(-94.38 -13.07)"/><path class="cls-10" d="M389.71,26c-21-.05-32.39,6.14-35.95,8.23C349.18,36.88,332,47,332.84,59.76c.82,12,17.14,19.22,25.39,22.89,22.21,9.85,59.16,14.3,81.2-7.51,3.63-3.6,14.43-14.3,12.16-25.22C447.72,31.37,409,26,389.71,26Z" transform="translate(-94.38 -13.07)"/><path class="cls-9" d="M390.87,54.39c-2.27.06-5.25,1.24-5.45,3-.24,2.06,3.54,4.93,7,4.38,2.28-.36,4.74-2.28,4.56-4.11C396.76,55.57,393.38,54.32,390.87,54.39Z" transform="translate(-94.38 -13.07)"/><path class="cls-7" d="M387.29,53.32c-2.83-4.18-7.81-9.94-15.64-12.79a28.2,28.2,0,0,0-3-.89" transform="translate(-94.38 -13.07)"/><path class="cls-7" d="M396.68,52.24a47.79,47.79,0,0,1,20.48-11.71c1.25-.33,2.47-.6,3.67-.8" transform="translate(-94.38 -13.07)"/><path class="cls-7" d="M404.19,56.54a74.11,74.11,0,0,1,30.05,4.91c.94.38,1.87.76,2.77,1.17" transform="translate(-94.38 -13.07)"/><path class="cls-7" d="M399.37,62.35a65.54,65.54,0,0,1,15,12l.89,1" transform="translate(-94.38 -13.07)"/><path class="cls-7" d="M389.17,64.41a87.61,87.61,0,0,0-12.34,13.94l-.62.9" transform="translate(-94.38 -13.07)"/><path class="cls-7" d="M392.39,65.12a68,68,0,0,1,2.86,14.49c0,.39.07.77.09,1.16" transform="translate(-94.38 -13.07)"/><path class="cls-7" d="M379.87,60.92a38.72,38.72,0,0,0-14.57,6.79,38.27,38.27,0,0,0-6.26,6" transform="translate(-94.38 -13.07)"/><path class="cls-7" d="M373.88,57a157.22,157.22,0,0,0-24.68-4l-2.41-.18" transform="translate(-94.38 -13.07)"/></g><g id="Calque_8" data-name="Calque 8"><path class="cls-10" d="M507.19,64.91c.77,4.52,4,20.16,17.28,31.09,11.41,9.37,25.53,11.42,29.07,11.91,4.29.6,41,5.74,58.05-17.5,6.36-8.69,7.54-17.8,8.35-25a68.84,68.84,0,0,0-6.26-36.75" transform="translate(-94.38 -13.07)"/><path class="cls-3" d="M576,14.1a85.48,85.48,0,0,0-41.39,10.17c-12,6.5-24.62,13.38-27.67,27-2.36,10.52,1.73,22.08,8.52,29.32,17.87,19.09,58,12.07,80.4-6.14,4.56-3.71,17.56-14.31,19.16-31,.33-3.42,1.22-12.78-4.49-20.11C603.12,13.86,589.53,14,576,14.1Z" transform="translate(-94.38 -13.07)"/><path class="cls-9" d="M561.36,48.29c-2.06-.58-3.11-.85-4.21-.33a4.4,4.4,0,0,0-2.25,4.7c.72,2.75,5.3,3.9,8.5,2.84,2-.66,4.27-2.43,4-4S564.57,49.18,561.36,48.29Z" transform="translate(-94.38 -13.07)"/><path class="cls-7" d="M572.69,46A116.35,116.35,0,0,1,587,32.27c3-2.45,6-4.63,8.86-6.55" transform="translate(-94.38 -13.07)"/><path class="cls-7" d="M572.69,51.77A126.83,126.83,0,0,1,589,48.16a125.53,125.53,0,0,1,13.84-1.33" transform="translate(-94.38 -13.07)"/><path class="cls-7" d="M570.53,55.22q13.25-.26,27.05.55l1.78.12" transform="translate(-94.38 -13.07)"/><path class="cls-7" d="M569.42,57.77a47,47,0,0,0,7.11,5.84,47.45,47.45,0,0,0,11.83,5.72" transform="translate(-94.38 -13.07)"/><path class="cls-7" d="M561,58.61a32.2,32.2,0,0,0-7.16,14.83" transform="translate(-94.38 -13.07)"/><path class="cls-7" d="M553.19,56a72.16,72.16,0,0,0-20.66,20.55" transform="translate(-94.38 -13.07)"/><path class="cls-7" d="M548.08,52.94c-6.15.34-11,.43-14.33.45-3,0-7.54,0-13.78.5-1,.08-1.88.16-2.44.22" transform="translate(-94.38 -13.07)"/><path class="cls-7" d="M551.69,46.77c-1.46-1.51-3-3.12-4.44-4.83A125.85,125.85,0,0,1,539,31.44" transform="translate(-94.38 -13.07)"/><path class="cls-7" d="M561.08,43.27a55.52,55.52,0,0,1-7.44-17.83" transform="translate(-94.38 -13.07)"/></g><g id="Calque_5" data-name="Calque 5"><path class="cls-10" d="M495.86,79.33c-9.26-1.84-16.39-1.16-28.5,0-11.14,1.07-16.71,1.6-22.33,4-16,6.81-23.18,21-24,22.67-6.69,13.67-4.4,26.4-3,34.16,1.14,6.35,4.54,25.23,18.66,36.5,24.75,19.75,72.92,8.61,89.84-20.33,9.32-16,7.29-34.11,6.83-37.67-.89-6.88-2.34-18.06-11.17-27.16C513.88,82.92,503.55,80.86,495.86,79.33Z" transform="translate(-94.38 -13.07)"/><path class="cls-11" d="M469.69,90.33c0-2-.34-15.39-9.5-20.83a15.19,15.19,0,0,0-4-1.67" transform="translate(-94.38 -13.07)"/></g><g id="Calque_6" data-name="Calque 6"><path class="cls-10" d="M365.36,91c-13.77-1-19.94.28-21.67.66a56.86,56.86,0,0,0-25,12.67A55,55,0,0,0,302.19,133c-3.35,14.41,0,25.87,2.5,34.66,3.33,11.53,7.46,25.81,20.84,35.67,12.38,9.13,25.87,9.44,35.83,9.67s24.92.57,39.17-9.34c15.54-10.8,20.31-27,22.66-35A69.1,69.1,0,0,0,424,130c-2-7.28-5.76-20.73-17.84-29.67C396.7,93.31,386.26,92.54,365.36,91Z" transform="translate(-94.38 -13.07)"/><path class="cls-12" d="M359,112.83a72.27,72.27,0,0,0-9.84-7.33,71.22,71.22,0,0,0-8.83-4.67" transform="translate(-94.38 -13.07)"/></g><g id="Calque_4" data-name="Calque 4"><path class="cls-3" d="M587.24,79.87a23.14,23.14,0,0,1,10,1.46c3.1,1.12,6.95,2.5,10.17,6,2.48,2.69,2.06,3.89,5.33,10a82.35,82.35,0,0,0,7,10.83c4.21,5.64,5.18,5.48,9.67,11.17a71.45,71.45,0,0,1,8.17,12.33,61.55,61.55,0,0,1,5.66,16.17A62.48,62.48,0,0,1,644,163.5c-.34,7.35-.6,12.94-3.34,19.66a44.44,44.44,0,0,1-13,17.5c-4.87,4-9.1,5.66-17.5,9-8.19,3.26-12.28,4.89-18,5.34-10.78.84-19.17-2.86-23.16-4.67-5.69-2.58-9.12-5.35-15.5-10.5-9.57-7.71-14.35-11.57-18.17-18.17-6.3-10.88-6.24-21.66-6.17-25.83a57,57,0,0,1,3.17-17.33c1.65-5,3.88-9.16,8.33-17.5,4-7.54,4.12-6.93,7.34-13.17,4.28-8.3,4.33-9.79,7.66-15.33,3.74-6.22,5.57-8.49,8.8-10.67C571.59,77,582.81,78.6,587.24,79.87Z" transform="translate(-94.38 -13.07)"/><path class="cls-11" d="M586.11,82.16a27.85,27.85,0,0,0,6.29-8.73,65.8,65.8,0,0,0,3.88-9.88" transform="translate(-94.38 -13.07)"/></g><g id="Calque_3" data-name="Calque 3"><path class="cls-3" d="M432.86,145.83c7-13.4,12.82-24.62,22-30,13.95-8.18,31.9-.71,36,1,15.27,6.36,24.28,19.24,29,26,5,7.16,4.86,9.33,11,17,4.28,5.35,6,6.38,17,18,10.08,10.67,11.82,13.2,13,17a27.56,27.56,0,0,1,0,16c-.5,1.61-3.42,10.88-12,15-2.08,1-5.14,2-19,1-9.64-.7-21.8-.74-26,0-17,3-12.37,3.82-29,5-4.6.33-20.17,1.23-35-8-3.23-2-21-13-23-31-1.3-11.45,4.13-22.65,14-43C431.4,148.71,432,147.49,432.86,145.83Z" transform="translate(-94.38 -13.07)"/><path class="cls-11" d="M557.78,218.79a32.81,32.81,0,0,0,11.62,3.79,33.18,33.18,0,0,0,10.59-.37" transform="translate(-94.38 -13.07)"/></g></svg>