<svg xmlns="http://www.w3.org/2000/svg" viewBox="0 0 248.5 264"><defs><style>.cls-1{fill:#f96;}.cls-2{fill:#fff;}</style></defs><title>icone_domicile</title><g id="Calque_3" data-name="Calque 3"><path class="cls-1" d="M200,86.67,77.25,209.42a1.9,1.9,0,0,0,1.34,3.25h33.08V312.5a2.17,2.17,0,0,0,2.16,2.17H283.67a2.33,2.33,0,0,0,2.33-2.34v-99l37.06-.14a2.13,2.13,0,0,0,1.5-3.63L268.5,153.5V106.61a1.94,1.94,0,0,0-1.94-1.94H241a2,2,0,0,0-2,2v17l-39-37" transform="translate(-76.69 -86.67)"/></g><g id="Calque_5" data-name="Calque 5"><path class="cls-1" d="M110.05,346.67l5.2-28.1a17.26,17.26,0,0,1,9.43-12.34l27-13h3.87l-.31-.85v-3.15c-8-.24-24.29-3.29-27.45-11.64l-1.28-3.38,3.23-1.62c.25-.13,7.1-3.87,8.93-14.82,2-11.72,1.07-27.77,1.06-27.94l0-.55.31-1.41c3.58-16,6.4-28.62,32.16-31.07a23.37,23.37,0,0,1,2.35-.11,19.84,19.84,0,0,1,14.15,5.55h1.18c5.82,0,8.1,1.07,9.31,1.87,13.26,8.85,13.71,19.14,13.88,23,0,.31,0,.56,0,.75a65.77,65.77,0,0,1,.35,20.51,47.56,47.56,0,0,0-.32,10.73c1.17,10.51,8.14,13.19,8.43,13.29l4,1.34-1.59,3.91c-3.11,7.9-18.57,10.6-27.44,11.24v4.35H200l27,13a17.26,17.26,0,0,1,9.43,12.34l5.2,28.1Z" transform="translate(-76.69 -86.67)"/><path class="cls-2" d="M174.48,200.67c8.6,0,12.44,5.64,12.44,5.64s1.24-.1,2.89-.1c2.38,0,5.58.2,7.09,1.2,13.3,8.87,11.81,18.93,12.19,21.07,2.59,14.56-1.11,21.06,0,31,1.49,13.4,11.09,16.63,11.09,16.63-2.25,5.7-17.74,8.87-27.72,8.87v7.76l-1.62,4.43h8.27l26.14,12.62a13.16,13.16,0,0,1,7.23,9.47l4.33,23.37H114.86l4.33-23.37a13.16,13.16,0,0,1,7.23-9.47l26.13-12.62h8.63l-2-5.54V285a18.64,18.64,0,0,1-3,.2c-8,0-22.53-3.33-24.71-9.07,0,0,8.87-4.44,11.08-17.74,2.06-12.32,1.11-28.82,1.11-28.82,3.62-16.15,5.55-26.61,28.83-28.83.68-.06,1.34-.09,2-.09m0-8h0c-.9,0-1.82,0-2.73.13-28.65,2.72-32.06,18-35.68,34.18l-.19.86-.25,1.09.07,1.11c0,.16.86,15.79-1,27.06-1.38,8.29-6.12,11.48-6.85,11.93l-6.86,3,3,6.93c2.85,7.53,12.6,11.28,21,13l-22.07,10.65a21.28,21.28,0,0,0-11.62,15.23L107,341.21l-1.75,9.46H246.43l-1.76-9.46-4.32-23.36a21.31,21.31,0,0,0-11.62-15.23l-22.74-11c8.61-1.6,18.68-5.07,21.63-12.57l3.28-8.33-8.07-2.16c-.88-.4-5-2.64-5.79-9.95a44.33,44.33,0,0,1,.33-9.86,70.58,70.58,0,0,0-.36-21.45c0-.12,0-.26,0-.41-.18-4-.71-16.19-15.67-26.16-2.55-1.7-6.1-2.52-11.16-2.55a23.82,23.82,0,0,0-15.69-5.54Z" transform="translate(-76.69 -86.67)"/></g></svg>