<svg xmlns="http://www.w3.org/2000/svg" viewBox="0 0 353.5 266.5"><defs><style>.cls-1{fill:#f96;}.cls-2{fill:#fff;}</style></defs><title>icone_entretien</title><g id="Calque_2" data-name="Calque 2"><path class="cls-1" d="M12,155.5H222a0,0,0,0,1,0,0v24a0,0,0,0,1,0,0H12a12,12,0,0,1-12-12v0a12,12,0,0,1,12-12Z"/><rect class="cls-1" x="33" y="179.5" width="189" height="65"/><path class="cls-1" d="M33,244.5H57a0,0,0,0,1,0,0v10a12,12,0,0,1-12,12h0a12,12,0,0,1-12-12v-10A0,0,0,0,1,33,244.5Z"/><path class="cls-1" d="M262.42,56h22.17A26.92,26.92,0,0,1,311.5,82.92V104a38,38,0,0,1-38,38h0a38,38,0,0,1-38-38V82.92A26.92,26.92,0,0,1,262.42,56Z"/></g><g id="Calque_4" data-name="Calque 4"><path class="cls-2" d="M248.83,148.32H297a56.5,56.5,0,0,1,56.5,56.5v42.69a13.17,13.17,0,0,1-13.17,13.17H205.67a13.17,13.17,0,0,1-13.17-13.17V204.66A56.33,56.33,0,0,1,248.83,148.32Z"/><path class="cls-1" d="M259.83,156H286a56.5,56.5,0,0,1,56.5,56.5v27.33A13.17,13.17,0,0,1,329.33,253H216.67a13.17,13.17,0,0,1-13.17-13.17v-27.5A56.33,56.33,0,0,1,259.83,156Z"/><path class="cls-2" d="M255.5,197.5h35A32.5,32.5,0,0,1,323,230v25.5a0,0,0,0,1,0,0H223a0,0,0,0,1,0,0V230A32.5,32.5,0,0,1,255.5,197.5Z"/></g><g id="Calque_5" data-name="Calque 5"><path class="cls-1" d="M118,199.57,101.35,153v-6.65c-6.66,1.11-25.23-2.3-27.72-8.87,0,0,8.87-4.43,11.09-17.74,2-12.32,1.1-28.82,1.1-28.82,3.62-16.14,5.55-26.61,28.83-28.82,10-1,14.41,5.54,14.41,5.54s7.43-.59,10,1.11c13.3,8.87,11.81,18.92,12.19,21.06,2.59,14.57-1.1,21.06,0,31,1.49,13.41,11.09,16.63,11.09,16.63-2.25,5.7-17.74,8.87-27.72,8.87v7.76Z" transform="translate(-25.5 -62)"/><path class="cls-1" d="M118,200.67,98,176.28H88l6.65-17.73L68.56,171.16a13.19,13.19,0,0,0-7.23,9.48L57,204h61Z" transform="translate(-25.5 -62)"/><path class="cls-1" d="M118,200.67l20-24.39h10l-6.65-17.73,26.13,12.61a13.19,13.19,0,0,1,7.23,9.48L179,204H118Z" transform="translate(-25.5 -62)"/></g><g id="Calque_3" data-name="Calque 3"><path class="cls-2" d="M125.68,88.6h61.49a7.33,7.33,0,0,1,7.33,7.33v39.18a7.33,7.33,0,0,1-7.33,7.33H118.35a0,0,0,0,1,0,0V95.93A7.33,7.33,0,0,1,125.68,88.6Z"/><path class="cls-1" d="M128.44,92.5h61.11A4.44,4.44,0,0,1,194,96.94v41.11a4.44,4.44,0,0,1-4.44,4.44H124a0,0,0,0,1,0,0V96.94A4.44,4.44,0,0,1,128.44,92.5Z"/><rect class="cls-2" x="148" y="112.5" width="22" height="10" rx="4.44"/></g></svg>