<svg xmlns="http://www.w3.org/2000/svg" viewBox="0 0 270 261.78"><defs><style>.cls-1{fill:#f96;}.cls-2{fill:#fff;}</style></defs><title>icone_skype</title><g id="Calque_3" data-name="Calque 3"><rect class="cls-1" width="270" height="198" rx="15"/><rect class="cls-2" x="16.78" y="16.67" width="236.44" height="165.78"/><rect class="cls-1" x="111.78" y="198" width="44.44" height="31.56"/><polygon class="cls-1" points="84.22 229.56 183.11 229.56 194.44 261.78 73.11 261.78 84.22 229.56"/></g><g id="Calque_5" data-name="Calque 5"><path class="cls-1" d="M204,256.79l-16.63-46.56v-6.66c-6.65,1.11-25.23-2.3-27.72-8.87,0,0,8.87-4.43,11.09-17.73,2-12.32,1.11-28.83,1.11-28.83,3.62-16.14,5.54-26.61,28.82-28.82,10-.95,14.42,5.54,14.42,5.54s7.43-.59,10,1.11c13.31,8.87,11.82,18.93,12.2,21.06,2.58,14.57-1.11,21.07,0,31,1.49,13.41,11.09,16.63,11.09,16.63-2.25,5.7-17.74,8.87-27.72,8.87v7.76Z" transform="translate(-70.22 -78.67)"/><path class="cls-1" d="M204,257.9l-20-24.39h-10l6.65-17.74-26.13,12.61a13.21,13.21,0,0,0-7.24,9.48L143,261.22h61Z" transform="translate(-70.22 -78.67)"/><path class="cls-1" d="M204,257.9l20-24.39h10l-6.65-17.74,26.13,12.61a13.21,13.21,0,0,1,7.24,9.48L265,261.22H204Z" transform="translate(-70.22 -78.67)"/></g></svg>