<svg id="Calque_2" data-name="Calque 2" xmlns="http://www.w3.org/2000/svg" viewBox="0 0 326.48 366.81"><defs><style>.cls-1,.cls-2{fill:none;stroke:#366;stroke-miterlimit:10;stroke-width:10px;}.cls-2{stroke-linecap:round;}</style></defs><title>logo_pomme_bleu_10px</title><path class="cls-1" d="M194,98s-31.79-2.59-47-16.63C129.55,65.18,126.5,30.5,126.5,30.5s28.3,2.68,41.09,12.72C188.69,59.77,194,98,194,98Z" transform="translate(-36.52 -15.5)"/><path class="cls-2" d="M200.5,126.5c-3.64-7.13-8.87-35.8-4-58,6.29-28.71,28.91-41.55,62-48" transform="translate(-36.52 -15.5)"/><path class="cls-1" d="M311.52,117c-8.07-6.41-35.94-31.94-111.76,9.87C123.94,85.06,96.08,110.59,88,117c-97,77-24.19,233.25,55,258,15.95,5,31.35,2.41,56.76-12.86C225.18,377.41,240.57,380,256.52,375,335.72,350.25,408.52,194,311.52,117Z" transform="translate(-36.52 -15.5)"/></svg>